<svg width="497" height="476" viewBox="0 0 497 476" fill="none" xmlns="http://www.w3.org/2000/svg">
<path fill-rule="evenodd" clip-rule="evenodd" d="M29.7268 101.487C73.8657 70.7788 139.208 128.549 190.283 110.814C229.568 97.1733 230.855 34.2613 269.21 18.3315C310.588 1.14579 373.676 -12.3667 402.527 22.6629C435.996 63.3 380.162 126.652 398.713 175.57C413.138 213.605 475.933 216.399 490.417 254.413C505.198 293.205 492.88 337.915 474.507 374.486C455.447 412.424 427.832 454.558 385.675 462.905C342.316 471.489 306.836 414.965 262.501 416.46C212.506 418.147 172.698 492.711 126.957 471.63C83.9111 451.792 113.056 379.99 91.9711 337.868C72.2215 298.414 20.5344 279.159 9.35117 236.689C-2.55613 191.47 -8.34194 127.971 29.7268 101.487Z" fill="white"/>
</svg>
