<svg width="281" height="129" viewBox="0 0 281 129" fill="none" xmlns="http://www.w3.org/2000/svg">
<path d="M120 0C115.583 0 112 3.58034 112 8.00003C112 12.4197 115.583 15.9999 120 15.9999C124.417 15.9999 128 12.4173 128 8.00003C128 3.58276 124.42 0 120 0ZM120 13.8445C116.778 13.8445 114.155 11.2247 114.155 8.00003C114.155 4.77537 116.778 2.15545 120 2.15545C123.222 2.15545 125.845 4.77537 125.845 8.00003C125.845 11.2247 123.225 13.8445 120 13.8445Z" fill="#1A1A1A"/>
<path d="M137.65 15.8308C141.276 15.0712 144 11.8538 144 8.0026C144 3.58291 140.42 0.00268555 136 0.00268555C131.58 0.00268555 128 3.58291 128 8.0026C128 11.8562 130.724 15.0712 134.35 15.8308C130.724 16.5904 128 19.8078 128 23.6614C128 28.0811 131.583 31.6613 136 31.6613C140.417 31.6613 144 28.0811 144 23.6614C144 19.8078 141.276 16.5928 137.65 15.8308ZM130.158 8.0026C130.158 4.78036 132.78 2.15802 136.002 2.15802C139.225 2.15802 141.847 4.77794 141.847 8.0026C141.847 11.2273 139.227 13.8472 136.002 13.8472C132.778 13.8472 130.158 11.2273 130.158 8.0026ZM136.002 29.506C132.78 29.506 130.158 26.8861 130.158 23.6614C130.158 20.4368 132.78 17.8168 136.002 17.8168C139.225 17.8168 141.847 20.4392 141.847 23.6614C141.847 26.8837 139.227 29.506 136.002 29.506Z" fill="#1A1A1A"/>
<path d="M105.65 31.4897C109.276 30.7301 112 27.5128 112 23.6616C112 19.2419 108.42 15.6592 104 15.6592C99.5803 15.6592 96 19.2419 96 23.6616C96 27.5152 98.7239 30.7301 102.35 31.4897C98.7239 32.2493 96 35.4668 96 39.318C96 43.7377 99.5827 47.3179 104 47.3179C108.417 47.3179 112 43.7377 112 39.318C112 35.4644 109.276 32.2493 105.65 31.4897ZM98.1579 23.6616C98.1579 20.4393 100.778 17.817 104.002 17.817C107.227 17.817 109.847 20.4393 109.847 23.6616C109.847 26.8838 107.227 29.5062 104.002 29.5062C100.778 29.5062 98.1579 26.8862 98.1579 23.6616ZM104.002 45.1625C100.78 45.1625 98.1579 42.5427 98.1579 39.318C98.1579 36.0934 100.778 33.4734 104.002 33.4734C107.227 33.4734 109.847 36.0934 109.847 39.318C109.847 42.5427 107.227 45.1625 104.002 45.1625Z" fill="#1A1A1A"/>
<path d="M120 31.3179C115.583 31.3179 112 34.8982 112 39.3179C112 43.7376 115.583 47.3178 120 47.3178C124.417 47.3178 128 43.7376 128 39.3179C128 34.8982 124.42 31.3179 120 31.3179ZM120 45.1624C116.778 45.1624 114.155 42.5426 114.155 39.3179C114.155 36.0932 116.778 33.4733 120 33.4733C123.222 33.4733 125.845 36.0932 125.845 39.3179C125.845 42.5426 123.225 45.1624 120 45.1624Z" fill="#1A1A1A"/>
<path d="M168 0C163.583 0 160 3.58034 160 8.00003C160 12.4197 163.583 15.9999 168 15.9999C172.417 15.9999 176 12.4173 176 8.00003C176 3.58276 172.42 0 168 0ZM168 13.8445C164.778 13.8445 162.155 11.2247 162.155 8.00003C162.155 4.77537 164.778 2.15545 168 2.15545C171.222 2.15545 173.845 4.77537 173.845 8.00003C173.845 11.2247 171.225 13.8445 168 13.8445Z" fill="#1A1A1A"/>
<path d="M185.65 15.8308C189.276 15.0712 192 11.8538 192 8.0026C192 3.58291 188.42 0.00268555 184 0.00268555C179.58 0.00268555 176 3.58291 176 8.0026C176 11.8562 178.724 15.0712 182.35 15.8308C178.724 16.5904 176 19.8078 176 23.6614C176 28.0811 179.583 31.6613 184 31.6613C188.417 31.6613 192 28.0811 192 23.6614C192 19.8078 189.276 16.5928 185.65 15.8308ZM178.158 8.0026C178.158 4.78036 180.78 2.15802 184.002 2.15802C187.225 2.15802 189.847 4.77794 189.847 8.0026C189.847 11.2273 187.227 13.8472 184.002 13.8472C180.778 13.8472 178.158 11.2273 178.158 8.0026ZM184.002 29.506C180.78 29.506 178.158 26.8861 178.158 23.6614C178.158 20.4368 180.78 17.8168 184.002 17.8168C187.225 17.8168 189.847 20.4392 189.847 23.6614C189.847 26.8837 187.227 29.506 184.002 29.506Z" fill="#1A1A1A"/>
<path d="M153.65 31.4897C157.276 30.7301 160 27.5128 160 23.6616C160 19.2419 156.42 15.6592 152 15.6592C147.58 15.6592 144 19.2419 144 23.6616C144 27.5152 146.724 30.7301 150.35 31.4897C146.724 32.2493 144 35.4668 144 39.318C144 43.7377 147.583 47.3179 152 47.3179C156.417 47.3179 160 43.7377 160 39.318C160 35.4644 157.276 32.2493 153.65 31.4897ZM146.158 23.6616C146.158 20.4393 148.778 17.817 152.002 17.817C155.227 17.817 157.847 20.4393 157.847 23.6616C157.847 26.8838 155.227 29.5062 152.002 29.5062C148.778 29.5062 146.158 26.8862 146.158 23.6616ZM152.002 45.1625C148.78 45.1625 146.158 42.5427 146.158 39.318C146.158 36.0934 148.778 33.4734 152.002 33.4734C155.227 33.4734 157.847 36.0934 157.847 39.318C157.847 42.5427 155.227 45.1625 152.002 45.1625Z" fill="#1A1A1A"/>
<path d="M168 31.3179C163.583 31.3179 160 34.8982 160 39.3179C160 43.7376 163.583 47.3178 168 47.3178C172.417 47.3178 176 43.7376 176 39.3179C176 34.8982 172.42 31.3179 168 31.3179ZM168 45.1624C164.778 45.1624 162.155 42.5426 162.155 39.3179C162.155 36.0932 164.778 33.4733 168 33.4733C171.222 33.4733 173.845 36.0932 173.845 39.3179C173.845 42.5426 171.225 45.1624 168 45.1624Z" fill="#1A1A1A"/>
<path d="M216 0C211.583 0 208 3.58034 208 8.00003C208 12.4197 211.583 15.9999 216 15.9999C220.417 15.9999 224 12.4173 224 8.00003C224 3.58276 220.42 0 216 0ZM216 13.8445C212.778 13.8445 210.155 11.2247 210.155 8.00003C210.155 4.77537 212.778 2.15545 216 2.15545C219.222 2.15545 221.845 4.77537 221.845 8.00003C221.845 11.2247 219.225 13.8445 216 13.8445Z" fill="#1A1A1A"/>
<path d="M233.65 15.8308C237.276 15.0712 240 11.8538 240 8.0026C240 3.58291 236.42 0.00268555 232 0.00268555C227.58 0.00268555 224 3.58291 224 8.0026C224 11.8562 226.724 15.0712 230.35 15.8308C226.724 16.5904 224 19.8078 224 23.6614C224 28.0811 227.583 31.6613 232 31.6613C236.417 31.6613 240 28.0811 240 23.6614C240 19.8078 237.276 16.5928 233.65 15.8308ZM226.158 8.0026C226.158 4.78036 228.78 2.15802 232.002 2.15802C235.225 2.15802 237.847 4.77794 237.847 8.0026C237.847 11.2273 235.227 13.8472 232.002 13.8472C228.778 13.8472 226.158 11.2273 226.158 8.0026ZM232.002 29.506C228.78 29.506 226.158 26.8861 226.158 23.6614C226.158 20.4368 228.78 17.8168 232.002 17.8168C235.225 17.8168 237.847 20.4392 237.847 23.6614C237.847 26.8837 235.227 29.506 232.002 29.506Z" fill="#1A1A1A"/>
<path d="M201.65 31.4897C205.276 30.7301 208 27.5128 208 23.6616C208 19.2419 204.42 15.6592 200 15.6592C195.58 15.6592 192 19.2419 192 23.6616C192 27.5152 194.724 30.7301 198.35 31.4897C194.724 32.2493 192 35.4668 192 39.318C192 43.7377 195.583 47.3179 200 47.3179C204.417 47.3179 208 43.7377 208 39.318C208 35.4644 205.276 32.2493 201.65 31.4897ZM194.158 23.6616C194.158 20.4393 196.778 17.817 200.002 17.817C203.227 17.817 205.847 20.4393 205.847 23.6616C205.847 26.8838 203.227 29.5062 200.002 29.5062C196.778 29.5062 194.158 26.8862 194.158 23.6616ZM200.002 45.1625C196.78 45.1625 194.158 42.5427 194.158 39.318C194.158 36.0934 196.778 33.4734 200.002 33.4734C203.227 33.4734 205.847 36.0934 205.847 39.318C205.847 42.5427 203.227 45.1625 200.002 45.1625Z" fill="#1A1A1A"/>
<path d="M216 31.3179C211.583 31.3179 208 34.8982 208 39.3179C208 43.7376 211.583 47.3178 216 47.3178C220.417 47.3178 224 43.7376 224 39.3179C224 34.8982 220.42 31.3179 216 31.3179ZM216 45.1624C212.778 45.1624 210.155 42.5426 210.155 39.3179C210.155 36.0932 212.778 33.4733 216 33.4733C219.222 33.4733 221.845 36.0932 221.845 39.3179C221.845 42.5426 219.225 45.1624 216 45.1624Z" fill="#1A1A1A"/>
<path d="M264 0C259.583 0 256 3.58034 256 8.00003C256 12.4197 259.583 15.9999 264 15.9999C268.417 15.9999 272 12.4173 272 8.00003C272 3.58276 268.42 0 264 0ZM264 13.8445C260.778 13.8445 258.155 11.2247 258.155 8.00003C258.155 4.77537 260.778 2.15545 264 2.15545C267.222 2.15545 269.845 4.77537 269.845 8.00003C269.845 11.2247 267.225 13.8445 264 13.8445Z" fill="#1A1A1A"/>
<path d="M281.65 15.8308C285.276 15.0712 288 11.8538 288 8.0026C288 3.58291 284.42 0.00268555 280 0.00268555C275.58 0.00268555 272 3.58291 272 8.0026C272 11.8562 274.724 15.0712 278.35 15.8308C274.724 16.5904 272 19.8078 272 23.6614C272 28.0811 275.583 31.6613 280 31.6613C284.417 31.6613 288 28.0811 288 23.6614C288 19.8078 285.276 16.5928 281.65 15.8308ZM274.158 8.0026C274.158 4.78036 276.78 2.15802 280.002 2.15802C283.225 2.15802 285.847 4.77794 285.847 8.0026C285.847 11.2273 283.227 13.8472 280.002 13.8472C276.778 13.8472 274.158 11.2273 274.158 8.0026ZM280.002 29.506C276.78 29.506 274.158 26.8861 274.158 23.6614C274.158 20.4368 276.78 17.8168 280.002 17.8168C283.225 17.8168 285.847 20.4392 285.847 23.6614C285.847 26.8837 283.227 29.506 280.002 29.506Z" fill="#1A1A1A"/>
<path d="M249.65 31.4897C253.276 30.7301 256 27.5128 256 23.6616C256 19.2419 252.42 15.6592 248 15.6592C243.58 15.6592 240 19.2419 240 23.6616C240 27.5152 242.724 30.7301 246.35 31.4897C242.724 32.2493 240 35.4668 240 39.318C240 43.7377 243.583 47.3179 248 47.3179C252.417 47.3179 256 43.7377 256 39.318C256 35.4644 253.276 32.2493 249.65 31.4897ZM242.158 23.6616C242.158 20.4393 244.778 17.817 248.002 17.817C251.227 17.817 253.847 20.4393 253.847 23.6616C253.847 26.8838 251.227 29.5062 248.002 29.5062C244.778 29.5062 242.158 26.8862 242.158 23.6616ZM248.002 45.1625C244.78 45.1625 242.158 42.5427 242.158 39.318C242.158 36.0934 244.778 33.4734 248.002 33.4734C251.227 33.4734 253.847 36.0934 253.847 39.318C253.847 42.5427 251.227 45.1625 248.002 45.1625Z" fill="#1A1A1A"/>
<path d="M264 31.3179C259.583 31.3179 256 34.8982 256 39.3179C256 43.7376 259.583 47.3178 264 47.3178C268.417 47.3178 272 43.7376 272 39.3179C272 34.8982 268.42 31.3179 264 31.3179ZM264 45.1624C260.778 45.1624 258.155 42.5426 258.155 39.3179C258.155 36.0932 260.778 33.4733 264 33.4733C267.222 33.4733 269.845 36.0932 269.845 39.3179C269.845 42.5426 267.225 45.1624 264 45.1624Z" fill="#1A1A1A"/>
<path d="M72 47.3179C67.5827 47.3179 64 50.8982 64 55.3179C64 59.7376 67.5827 63.3178 72 63.3178C76.4173 63.3178 80 59.7352 80 55.3179C80 50.9006 76.4197 47.3179 72 47.3179ZM72 61.1624C68.7777 61.1624 66.1554 58.5426 66.1554 55.3179C66.1554 52.0932 68.7777 49.4733 72 49.4733C75.2222 49.4733 77.8445 52.0932 77.8445 55.3179C77.8445 58.5426 75.2246 61.1624 72 61.1624Z" fill="#1A1A1A"/>
<path d="M89.6498 63.1486C93.2761 62.389 96 59.1717 96 55.3205C96 50.9008 92.4197 47.3206 88 47.3206C83.5803 47.3206 80 50.9008 80 55.3205C80 59.1741 82.7239 62.389 86.3502 63.1486C82.7239 63.9082 80 67.1257 80 70.9793C80 75.399 83.5827 78.9792 88 78.9792C92.4173 78.9792 96 75.399 96 70.9793C96 67.1257 93.2761 63.9107 89.6498 63.1486ZM82.1578 55.3205C82.1578 52.0982 84.7801 49.4759 88.0024 49.4759C91.2246 49.4759 93.847 52.0958 93.847 55.3205C93.847 58.5451 91.2271 61.165 88.0024 61.165C84.7777 61.165 82.1578 58.5451 82.1578 55.3205ZM88.0024 76.8239C84.7801 76.8239 82.1578 74.2039 82.1578 70.9793C82.1578 67.7546 84.7801 65.1347 88.0024 65.1347C91.2246 65.1347 93.847 67.757 93.847 70.9793C93.847 74.2015 91.2271 76.8239 88.0024 76.8239Z" fill="#1A1A1A"/>
<path d="M57.6498 78.8076C61.2761 78.048 64 74.8306 64 70.9794C64 66.5598 60.4197 62.9771 56 62.9771C51.5803 62.9771 48 66.5598 48 70.9794C48 74.8331 50.7239 78.048 54.3502 78.8076C50.7239 79.5672 48 82.7847 48 86.6359C48 91.0556 51.5827 94.6358 56 94.6358C60.4173 94.6358 64 91.0556 64 86.6359C64 82.7823 61.2761 79.5672 57.6498 78.8076ZM50.1579 70.9794C50.1579 67.7572 52.7777 65.1349 56.0024 65.1349C59.2271 65.1349 61.847 67.7572 61.847 70.9794C61.847 74.2017 59.2271 76.824 56.0024 76.824C52.7777 76.824 50.1579 74.2041 50.1579 70.9794ZM56.0024 92.4804C52.7801 92.4804 50.1579 89.8606 50.1579 86.6359C50.1579 83.4112 52.7777 80.7913 56.0024 80.7913C59.2271 80.7913 61.847 83.4112 61.847 86.6359C61.847 89.8606 59.2271 92.4804 56.0024 92.4804Z" fill="#1A1A1A"/>
<path d="M72 78.6357C67.5827 78.6357 64 82.2161 64 86.6358C64 91.0555 67.5827 94.6357 72 94.6357C76.4173 94.6357 80 91.0555 80 86.6358C80 82.2161 76.4197 78.6357 72 78.6357ZM72 92.4802C68.7777 92.4802 66.1554 89.8604 66.1554 86.6358C66.1554 83.4111 68.7777 80.7912 72 80.7912C75.2222 80.7912 77.8445 83.4111 77.8445 86.6358C77.8445 89.8604 75.2246 92.4802 72 92.4802Z" fill="#1A1A1A"/>
<path d="M120 47.3179C115.583 47.3179 112 50.8982 112 55.3179C112 59.7376 115.583 63.3178 120 63.3178C124.417 63.3178 128 59.7352 128 55.3179C128 50.9006 124.42 47.3179 120 47.3179ZM120 61.1624C116.778 61.1624 114.155 58.5426 114.155 55.3179C114.155 52.0932 116.778 49.4733 120 49.4733C123.222 49.4733 125.845 52.0932 125.845 55.3179C125.845 58.5426 123.225 61.1624 120 61.1624Z" fill="#1A1A1A"/>
<path d="M137.65 63.1486C141.276 62.389 144 59.1717 144 55.3205C144 50.9008 140.42 47.3206 136 47.3206C131.58 47.3206 128 50.9008 128 55.3205C128 59.1741 130.724 62.389 134.35 63.1486C130.724 63.9082 128 67.1257 128 70.9793C128 75.399 131.583 78.9792 136 78.9792C140.417 78.9792 144 75.399 144 70.9793C144 67.1257 141.276 63.9107 137.65 63.1486ZM130.158 55.3205C130.158 52.0982 132.78 49.4759 136.002 49.4759C139.225 49.4759 141.847 52.0958 141.847 55.3205C141.847 58.5451 139.227 61.165 136.002 61.165C132.778 61.165 130.158 58.5451 130.158 55.3205ZM136.002 76.8239C132.78 76.8239 130.158 74.2039 130.158 70.9793C130.158 67.7546 132.78 65.1347 136.002 65.1347C139.225 65.1347 141.847 67.757 141.847 70.9793C141.847 74.2015 139.227 76.8239 136.002 76.8239Z" fill="#1A1A1A"/>
<path d="M105.65 78.8076C109.276 78.048 112 74.8306 112 70.9794C112 66.5598 108.42 62.9771 104 62.9771C99.5803 62.9771 96 66.5598 96 70.9794C96 74.8331 98.7239 78.048 102.35 78.8076C98.7239 79.5672 96 82.7847 96 86.6359C96 91.0556 99.5827 94.6358 104 94.6358C108.417 94.6358 112 91.0556 112 86.6359C112 82.7823 109.276 79.5672 105.65 78.8076ZM98.1579 70.9794C98.1579 67.7572 100.778 65.1349 104.002 65.1349C107.227 65.1349 109.847 67.7572 109.847 70.9794C109.847 74.2017 107.227 76.824 104.002 76.824C100.778 76.824 98.1579 74.2041 98.1579 70.9794ZM104.002 92.4804C100.78 92.4804 98.1579 89.8606 98.1579 86.6359C98.1579 83.4112 100.778 80.7913 104.002 80.7913C107.227 80.7913 109.847 83.4112 109.847 86.6359C109.847 89.8606 107.227 92.4804 104.002 92.4804Z" fill="#1A1A1A"/>
<path d="M120 78.6357C115.583 78.6357 112 82.2161 112 86.6358C112 91.0555 115.583 94.6357 120 94.6357C124.417 94.6357 128 91.0555 128 86.6358C128 82.2161 124.42 78.6357 120 78.6357ZM120 92.4802C116.778 92.4802 114.155 89.8604 114.155 86.6358C114.155 83.4111 116.778 80.7912 120 80.7912C123.222 80.7912 125.845 83.4111 125.845 86.6358C125.845 89.8604 123.225 92.4802 120 92.4802Z" fill="#1A1A1A"/>
<path d="M168 47.3179C163.583 47.3179 160 50.8982 160 55.3179C160 59.7376 163.583 63.3178 168 63.3178C172.417 63.3178 176 59.7352 176 55.3179C176 50.9006 172.42 47.3179 168 47.3179ZM168 61.1624C164.778 61.1624 162.155 58.5426 162.155 55.3179C162.155 52.0932 164.778 49.4733 168 49.4733C171.222 49.4733 173.845 52.0932 173.845 55.3179C173.845 58.5426 171.225 61.1624 168 61.1624Z" fill="#1A1A1A"/>
<path d="M185.65 63.1486C189.276 62.389 192 59.1717 192 55.3205C192 50.9008 188.42 47.3206 184 47.3206C179.58 47.3206 176 50.9008 176 55.3205C176 59.1741 178.724 62.389 182.35 63.1486C178.724 63.9082 176 67.1257 176 70.9793C176 75.399 179.583 78.9792 184 78.9792C188.417 78.9792 192 75.399 192 70.9793C192 67.1257 189.276 63.9107 185.65 63.1486ZM178.158 55.3205C178.158 52.0982 180.78 49.4759 184.002 49.4759C187.225 49.4759 189.847 52.0958 189.847 55.3205C189.847 58.5451 187.227 61.165 184.002 61.165C180.778 61.165 178.158 58.5451 178.158 55.3205ZM184.002 76.8239C180.78 76.8239 178.158 74.2039 178.158 70.9793C178.158 67.7546 180.78 65.1347 184.002 65.1347C187.225 65.1347 189.847 67.757 189.847 70.9793C189.847 74.2015 187.227 76.8239 184.002 76.8239Z" fill="#1A1A1A"/>
<path d="M153.65 78.8076C157.276 78.048 160 74.8306 160 70.9794C160 66.5598 156.42 62.9771 152 62.9771C147.58 62.9771 144 66.5598 144 70.9794C144 74.8331 146.724 78.048 150.35 78.8076C146.724 79.5672 144 82.7847 144 86.6359C144 91.0556 147.583 94.6358 152 94.6358C156.417 94.6358 160 91.0556 160 86.6359C160 82.7823 157.276 79.5672 153.65 78.8076ZM146.158 70.9794C146.158 67.7572 148.778 65.1349 152.002 65.1349C155.227 65.1349 157.847 67.7572 157.847 70.9794C157.847 74.2017 155.227 76.824 152.002 76.824C148.778 76.824 146.158 74.2041 146.158 70.9794ZM152.002 92.4804C148.78 92.4804 146.158 89.8606 146.158 86.6359C146.158 83.4112 148.778 80.7913 152.002 80.7913C155.227 80.7913 157.847 83.4112 157.847 86.6359C157.847 89.8606 155.227 92.4804 152.002 92.4804Z" fill="#1A1A1A"/>
<path d="M168 78.6357C163.583 78.6357 160 82.2161 160 86.6358C160 91.0555 163.583 94.6357 168 94.6357C172.417 94.6357 176 91.0555 176 86.6358C176 82.2161 172.42 78.6357 168 78.6357ZM168 92.4802C164.778 92.4802 162.155 89.8604 162.155 86.6358C162.155 83.4111 164.778 80.7912 168 80.7912C171.222 80.7912 173.845 83.4111 173.845 86.6358C173.845 89.8604 171.225 92.4802 168 92.4802Z" fill="#1A1A1A"/>
<path d="M216 47.3179C211.583 47.3179 208 50.8982 208 55.3179C208 59.7376 211.583 63.3178 216 63.3178C220.417 63.3178 224 59.7352 224 55.3179C224 50.9006 220.42 47.3179 216 47.3179ZM216 61.1624C212.778 61.1624 210.155 58.5426 210.155 55.3179C210.155 52.0932 212.778 49.4733 216 49.4733C219.222 49.4733 221.845 52.0932 221.845 55.3179C221.845 58.5426 219.225 61.1624 216 61.1624Z" fill="#1A1A1A"/>
<path d="M233.65 63.1486C237.276 62.389 240 59.1717 240 55.3205C240 50.9008 236.42 47.3206 232 47.3206C227.58 47.3206 224 50.9008 224 55.3205C224 59.1741 226.724 62.389 230.35 63.1486C226.724 63.9082 224 67.1257 224 70.9793C224 75.399 227.583 78.9792 232 78.9792C236.417 78.9792 240 75.399 240 70.9793C240 67.1257 237.276 63.9107 233.65 63.1486ZM226.158 55.3205C226.158 52.0982 228.78 49.4759 232.002 49.4759C235.225 49.4759 237.847 52.0958 237.847 55.3205C237.847 58.5451 235.227 61.165 232.002 61.165C228.778 61.165 226.158 58.5451 226.158 55.3205ZM232.002 76.8239C228.78 76.8239 226.158 74.2039 226.158 70.9793C226.158 67.7546 228.78 65.1347 232.002 65.1347C235.225 65.1347 237.847 67.757 237.847 70.9793C237.847 74.2015 235.227 76.8239 232.002 76.8239Z" fill="#1A1A1A"/>
<path d="M201.65 78.8076C205.276 78.048 208 74.8306 208 70.9794C208 66.5598 204.42 62.9771 200 62.9771C195.58 62.9771 192 66.5598 192 70.9794C192 74.8331 194.724 78.048 198.35 78.8076C194.724 79.5672 192 82.7847 192 86.6359C192 91.0556 195.583 94.6358 200 94.6358C204.417 94.6358 208 91.0556 208 86.6359C208 82.7823 205.276 79.5672 201.65 78.8076ZM194.158 70.9794C194.158 67.7572 196.778 65.1349 200.002 65.1349C203.227 65.1349 205.847 67.7572 205.847 70.9794C205.847 74.2017 203.227 76.824 200.002 76.824C196.778 76.824 194.158 74.2041 194.158 70.9794ZM200.002 92.4804C196.78 92.4804 194.158 89.8606 194.158 86.6359C194.158 83.4112 196.778 80.7913 200.002 80.7913C203.227 80.7913 205.847 83.4112 205.847 86.6359C205.847 89.8606 203.227 92.4804 200.002 92.4804Z" fill="#1A1A1A"/>
<path d="M216 78.6357C211.583 78.6357 208 82.2161 208 86.6358C208 91.0555 211.583 94.6357 216 94.6357C220.417 94.6357 224 91.0555 224 86.6358C224 82.2161 220.42 78.6357 216 78.6357ZM216 92.4802C212.778 92.4802 210.155 89.8604 210.155 86.6358C210.155 83.4111 212.778 80.7912 216 80.7912C219.222 80.7912 221.845 83.4111 221.845 86.6358C221.845 89.8604 219.225 92.4802 216 92.4802Z" fill="#1A1A1A"/>
<path d="M264 47.3179C259.583 47.3179 256 50.8982 256 55.3179C256 59.7376 259.583 63.3178 264 63.3178C268.417 63.3178 272 59.7352 272 55.3179C272 50.9006 268.42 47.3179 264 47.3179ZM264 61.1624C260.778 61.1624 258.155 58.5426 258.155 55.3179C258.155 52.0932 260.778 49.4733 264 49.4733C267.222 49.4733 269.845 52.0932 269.845 55.3179C269.845 58.5426 267.225 61.1624 264 61.1624Z" fill="#1A1A1A"/>
<path d="M281.65 63.1486C285.276 62.389 288 59.1717 288 55.3205C288 50.9008 284.42 47.3206 280 47.3206C275.58 47.3206 272 50.9008 272 55.3205C272 59.1741 274.724 62.389 278.35 63.1486C274.724 63.9082 272 67.1257 272 70.9793C272 75.399 275.583 78.9792 280 78.9792C284.417 78.9792 288 75.399 288 70.9793C288 67.1257 285.276 63.9107 281.65 63.1486ZM274.158 55.3205C274.158 52.0982 276.78 49.4759 280.002 49.4759C283.225 49.4759 285.847 52.0958 285.847 55.3205C285.847 58.5451 283.227 61.165 280.002 61.165C276.778 61.165 274.158 58.5451 274.158 55.3205ZM280.002 76.8239C276.78 76.8239 274.158 74.2039 274.158 70.9793C274.158 67.7546 276.78 65.1347 280.002 65.1347C283.225 65.1347 285.847 67.757 285.847 70.9793C285.847 74.2015 283.227 76.8239 280.002 76.8239Z" fill="#1A1A1A"/>
<path d="M249.65 78.8076C253.276 78.048 256 74.8306 256 70.9794C256 66.5598 252.42 62.9771 248 62.9771C243.58 62.9771 240 66.5598 240 70.9794C240 74.8331 242.724 78.048 246.35 78.8076C242.724 79.5672 240 82.7847 240 86.6359C240 91.0556 243.583 94.6358 248 94.6358C252.417 94.6358 256 91.0556 256 86.6359C256 82.7823 253.276 79.5672 249.65 78.8076ZM242.158 70.9794C242.158 67.7572 244.778 65.1349 248.002 65.1349C251.227 65.1349 253.847 67.7572 253.847 70.9794C253.847 74.2017 251.227 76.824 248.002 76.824C244.778 76.824 242.158 74.2041 242.158 70.9794ZM248.002 92.4804C244.78 92.4804 242.158 89.8606 242.158 86.6359C242.158 83.4112 244.778 80.7913 248.002 80.7913C251.227 80.7913 253.847 83.4112 253.847 86.6359C253.847 89.8606 251.227 92.4804 248.002 92.4804Z" fill="#1A1A1A"/>
<path d="M264 78.6357C259.583 78.6357 256 82.2161 256 86.6358C256 91.0555 259.583 94.6357 264 94.6357C268.417 94.6357 272 91.0555 272 86.6358C272 82.2161 268.42 78.6357 264 78.6357ZM264 92.4802C260.778 92.4802 258.155 89.8604 258.155 86.6358C258.155 83.4111 260.778 80.7912 264 80.7912C267.222 80.7912 269.845 83.4111 269.845 86.6358C269.845 89.8604 267.225 92.4802 264 92.4802Z" fill="#1A1A1A"/>
<path d="M24 94.636C19.5827 94.636 16 98.2163 16 102.636C16 107.056 19.5827 110.636 24 110.636C28.4173 110.636 32 107.053 32 102.636C32 98.2187 28.4197 94.636 24 94.636ZM24 108.48C20.7777 108.48 18.1554 105.861 18.1554 102.636C18.1554 99.4114 20.7777 96.7914 24 96.7914C27.2222 96.7914 29.8445 99.4114 29.8445 102.636C29.8445 105.861 27.2246 108.48 24 108.48Z" fill="#1A1A1A"/>
<path d="M41.6498 110.467C45.2761 109.707 48 106.49 48 102.639C48 98.2189 44.4197 94.6387 40 94.6387C35.5803 94.6387 32 98.2189 32 102.639C32 106.492 34.7239 109.707 38.3502 110.467C34.7239 111.226 32 114.444 32 118.297C32 122.717 35.5827 126.297 40 126.297C44.4173 126.297 48 122.717 48 118.297C48 114.444 45.2761 111.229 41.6498 110.467ZM34.1578 102.639C34.1578 99.4163 36.7801 96.794 40.0024 96.794C43.2246 96.794 45.847 99.4139 45.847 102.639C45.847 105.863 43.2271 108.483 40.0024 108.483C36.7777 108.483 34.1578 105.863 34.1578 102.639ZM40.0024 124.142C36.7801 124.142 34.1578 121.522 34.1578 118.297C34.1578 115.073 36.7801 112.453 40.0024 112.453C43.2246 112.453 45.847 115.075 45.847 118.297C45.847 121.52 43.2271 124.142 40.0024 124.142Z" fill="#1A1A1A"/>
<path d="M9.64982 126.126C13.2761 125.366 16 122.149 16 118.298C16 113.878 12.4197 110.295 7.99998 110.295C3.58027 110.295 0 113.878 0 118.298C0 122.151 2.72392 125.366 6.35016 126.126C2.72392 126.885 0 130.103 0 133.954C0 138.374 3.58268 141.954 7.99998 141.954C12.4173 141.954 16 138.374 16 133.954C16 130.1 13.2761 126.885 9.64982 126.126ZM2.15785 118.298C2.15785 115.075 4.77773 112.453 8.0024 112.453C11.2271 112.453 13.847 115.075 13.847 118.298C13.847 121.52 11.2271 124.142 8.0024 124.142C4.77773 124.142 2.15785 121.522 2.15785 118.298ZM8.0024 139.798C4.78015 139.798 2.15785 137.179 2.15785 133.954C2.15785 130.729 4.77773 128.109 8.0024 128.109C11.2271 128.109 13.847 130.729 13.847 133.954C13.847 137.179 11.2271 139.798 8.0024 139.798Z" fill="#1A1A1A"/>
<path d="M24 125.954C19.5827 125.954 16 129.534 16 133.954C16 138.374 19.5827 141.954 24 141.954C28.4173 141.954 32 138.374 32 133.954C32 129.534 28.4197 125.954 24 125.954ZM24 139.798C20.7777 139.798 18.1554 137.179 18.1554 133.954C18.1554 130.729 20.7777 128.109 24 128.109C27.2222 128.109 29.8445 130.729 29.8445 133.954C29.8445 137.179 27.2246 139.798 24 139.798Z" fill="#1A1A1A"/>
<path d="M72 94.636C67.5827 94.636 64 98.2163 64 102.636C64 107.056 67.5827 110.636 72 110.636C76.4173 110.636 80 107.053 80 102.636C80 98.2187 76.4197 94.636 72 94.636ZM72 108.48C68.7777 108.48 66.1554 105.861 66.1554 102.636C66.1554 99.4114 68.7777 96.7914 72 96.7914C75.2222 96.7914 77.8445 99.4114 77.8445 102.636C77.8445 105.861 75.2246 108.48 72 108.48Z" fill="#1A1A1A"/>
<path d="M89.6498 110.467C93.2761 109.707 96 106.49 96 102.639C96 98.2189 92.4197 94.6387 88 94.6387C83.5803 94.6387 80 98.2189 80 102.639C80 106.492 82.7239 109.707 86.3502 110.467C82.7239 111.226 80 114.444 80 118.297C80 122.717 83.5827 126.297 88 126.297C92.4173 126.297 96 122.717 96 118.297C96 114.444 93.2761 111.229 89.6498 110.467ZM82.1578 102.639C82.1578 99.4163 84.7801 96.794 88.0024 96.794C91.2246 96.794 93.847 99.4139 93.847 102.639C93.847 105.863 91.2271 108.483 88.0024 108.483C84.7777 108.483 82.1578 105.863 82.1578 102.639ZM88.0024 124.142C84.7801 124.142 82.1578 121.522 82.1578 118.297C82.1578 115.073 84.7801 112.453 88.0024 112.453C91.2246 112.453 93.847 115.075 93.847 118.297C93.847 121.52 91.2271 124.142 88.0024 124.142Z" fill="#1A1A1A"/>
<path d="M57.6498 126.126C61.2761 125.366 64 122.149 64 118.298C64 113.878 60.4197 110.295 56 110.295C51.5803 110.295 48 113.878 48 118.298C48 122.151 50.7239 125.366 54.3502 126.126C50.7239 126.885 48 130.103 48 133.954C48 138.374 51.5827 141.954 56 141.954C60.4173 141.954 64 138.374 64 133.954C64 130.1 61.2761 126.885 57.6498 126.126ZM50.1579 118.298C50.1579 115.075 52.7777 112.453 56.0024 112.453C59.2271 112.453 61.847 115.075 61.847 118.298C61.847 121.52 59.2271 124.142 56.0024 124.142C52.7777 124.142 50.1579 121.522 50.1579 118.298ZM56.0024 139.798C52.7801 139.798 50.1579 137.179 50.1579 133.954C50.1579 130.729 52.7777 128.109 56.0024 128.109C59.2271 128.109 61.847 130.729 61.847 133.954C61.847 137.179 59.2271 139.798 56.0024 139.798Z" fill="#1A1A1A"/>
<path d="M72 125.954C67.5827 125.954 64 129.534 64 133.954C64 138.374 67.5827 141.954 72 141.954C76.4173 141.954 80 138.374 80 133.954C80 129.534 76.4197 125.954 72 125.954ZM72 139.798C68.7777 139.798 66.1554 137.179 66.1554 133.954C66.1554 130.729 68.7777 128.109 72 128.109C75.2222 128.109 77.8445 130.729 77.8445 133.954C77.8445 137.179 75.2246 139.798 72 139.798Z" fill="#1A1A1A"/>
<path d="M120 94.636C115.583 94.636 112 98.2163 112 102.636C112 107.056 115.583 110.636 120 110.636C124.417 110.636 128 107.053 128 102.636C128 98.2187 124.42 94.636 120 94.636ZM120 108.48C116.778 108.48 114.155 105.861 114.155 102.636C114.155 99.4114 116.778 96.7914 120 96.7914C123.222 96.7914 125.845 99.4114 125.845 102.636C125.845 105.861 123.225 108.48 120 108.48Z" fill="#1A1A1A"/>
<path d="M137.65 110.467C141.276 109.707 144 106.49 144 102.639C144 98.2189 140.42 94.6387 136 94.6387C131.58 94.6387 128 98.2189 128 102.639C128 106.492 130.724 109.707 134.35 110.467C130.724 111.226 128 114.444 128 118.297C128 122.717 131.583 126.297 136 126.297C140.417 126.297 144 122.717 144 118.297C144 114.444 141.276 111.229 137.65 110.467ZM130.158 102.639C130.158 99.4163 132.78 96.794 136.002 96.794C139.225 96.794 141.847 99.4139 141.847 102.639C141.847 105.863 139.227 108.483 136.002 108.483C132.778 108.483 130.158 105.863 130.158 102.639ZM136.002 124.142C132.78 124.142 130.158 121.522 130.158 118.297C130.158 115.073 132.78 112.453 136.002 112.453C139.225 112.453 141.847 115.075 141.847 118.297C141.847 121.52 139.227 124.142 136.002 124.142Z" fill="#1A1A1A"/>
<path d="M105.65 126.126C109.276 125.366 112 122.149 112 118.298C112 113.878 108.42 110.295 104 110.295C99.5803 110.295 96 113.878 96 118.298C96 122.151 98.7239 125.366 102.35 126.126C98.7239 126.885 96 130.103 96 133.954C96 138.374 99.5827 141.954 104 141.954C108.417 141.954 112 138.374 112 133.954C112 130.1 109.276 126.885 105.65 126.126ZM98.1579 118.298C98.1579 115.075 100.778 112.453 104.002 112.453C107.227 112.453 109.847 115.075 109.847 118.298C109.847 121.52 107.227 124.142 104.002 124.142C100.778 124.142 98.1579 121.522 98.1579 118.298ZM104.002 139.798C100.78 139.798 98.1579 137.179 98.1579 133.954C98.1579 130.729 100.778 128.109 104.002 128.109C107.227 128.109 109.847 130.729 109.847 133.954C109.847 137.179 107.227 139.798 104.002 139.798Z" fill="#1A1A1A"/>
<path d="M120 125.954C115.583 125.954 112 129.534 112 133.954C112 138.374 115.583 141.954 120 141.954C124.417 141.954 128 138.374 128 133.954C128 129.534 124.42 125.954 120 125.954ZM120 139.798C116.778 139.798 114.155 137.179 114.155 133.954C114.155 130.729 116.778 128.109 120 128.109C123.222 128.109 125.845 130.729 125.845 133.954C125.845 137.179 123.225 139.798 120 139.798Z" fill="#1A1A1A"/>
<path d="M168 94.636C163.583 94.636 160 98.2163 160 102.636C160 107.056 163.583 110.636 168 110.636C172.417 110.636 176 107.053 176 102.636C176 98.2187 172.42 94.636 168 94.636ZM168 108.48C164.778 108.48 162.155 105.861 162.155 102.636C162.155 99.4114 164.778 96.7914 168 96.7914C171.222 96.7914 173.845 99.4114 173.845 102.636C173.845 105.861 171.225 108.48 168 108.48Z" fill="#1A1A1A"/>
<path d="M185.65 110.467C189.276 109.707 192 106.49 192 102.639C192 98.2189 188.42 94.6387 184 94.6387C179.58 94.6387 176 98.2189 176 102.639C176 106.492 178.724 109.707 182.35 110.467C178.724 111.226 176 114.444 176 118.297C176 122.717 179.583 126.297 184 126.297C188.417 126.297 192 122.717 192 118.297C192 114.444 189.276 111.229 185.65 110.467ZM178.158 102.639C178.158 99.4163 180.78 96.794 184.002 96.794C187.225 96.794 189.847 99.4139 189.847 102.639C189.847 105.863 187.227 108.483 184.002 108.483C180.778 108.483 178.158 105.863 178.158 102.639ZM184.002 124.142C180.78 124.142 178.158 121.522 178.158 118.297C178.158 115.073 180.78 112.453 184.002 112.453C187.225 112.453 189.847 115.075 189.847 118.297C189.847 121.52 187.227 124.142 184.002 124.142Z" fill="#1A1A1A"/>
<path d="M153.65 126.126C157.276 125.366 160 122.149 160 118.298C160 113.878 156.42 110.295 152 110.295C147.58 110.295 144 113.878 144 118.298C144 122.151 146.724 125.366 150.35 126.126C146.724 126.885 144 130.103 144 133.954C144 138.374 147.583 141.954 152 141.954C156.417 141.954 160 138.374 160 133.954C160 130.1 157.276 126.885 153.65 126.126ZM146.158 118.298C146.158 115.075 148.778 112.453 152.002 112.453C155.227 112.453 157.847 115.075 157.847 118.298C157.847 121.52 155.227 124.142 152.002 124.142C148.778 124.142 146.158 121.522 146.158 118.298ZM152.002 139.798C148.78 139.798 146.158 137.179 146.158 133.954C146.158 130.729 148.778 128.109 152.002 128.109C155.227 128.109 157.847 130.729 157.847 133.954C157.847 137.179 155.227 139.798 152.002 139.798Z" fill="#1A1A1A"/>
<path d="M168 125.954C163.583 125.954 160 129.534 160 133.954C160 138.374 163.583 141.954 168 141.954C172.417 141.954 176 138.374 176 133.954C176 129.534 172.42 125.954 168 125.954ZM168 139.798C164.778 139.798 162.155 137.179 162.155 133.954C162.155 130.729 164.778 128.109 168 128.109C171.222 128.109 173.845 130.729 173.845 133.954C173.845 137.179 171.225 139.798 168 139.798Z" fill="#1A1A1A"/>
<path d="M216 94.636C211.583 94.636 208 98.2163 208 102.636C208 107.056 211.583 110.636 216 110.636C220.417 110.636 224 107.053 224 102.636C224 98.2187 220.42 94.636 216 94.636ZM216 108.48C212.778 108.48 210.155 105.861 210.155 102.636C210.155 99.4114 212.778 96.7914 216 96.7914C219.222 96.7914 221.845 99.4114 221.845 102.636C221.845 105.861 219.225 108.48 216 108.48Z" fill="#1A1A1A"/>
<path d="M233.65 110.467C237.276 109.707 240 106.49 240 102.639C240 98.2189 236.42 94.6387 232 94.6387C227.58 94.6387 224 98.2189 224 102.639C224 106.492 226.724 109.707 230.35 110.467C226.724 111.226 224 114.444 224 118.297C224 122.717 227.583 126.297 232 126.297C236.417 126.297 240 122.717 240 118.297C240 114.444 237.276 111.229 233.65 110.467ZM226.158 102.639C226.158 99.4163 228.78 96.794 232.002 96.794C235.225 96.794 237.847 99.4139 237.847 102.639C237.847 105.863 235.227 108.483 232.002 108.483C228.778 108.483 226.158 105.863 226.158 102.639ZM232.002 124.142C228.78 124.142 226.158 121.522 226.158 118.297C226.158 115.073 228.78 112.453 232.002 112.453C235.225 112.453 237.847 115.075 237.847 118.297C237.847 121.52 235.227 124.142 232.002 124.142Z" fill="#1A1A1A"/>
<path d="M201.65 126.126C205.276 125.366 208 122.149 208 118.298C208 113.878 204.42 110.295 200 110.295C195.58 110.295 192 113.878 192 118.298C192 122.151 194.724 125.366 198.35 126.126C194.724 126.885 192 130.103 192 133.954C192 138.374 195.583 141.954 200 141.954C204.417 141.954 208 138.374 208 133.954C208 130.1 205.276 126.885 201.65 126.126ZM194.158 118.298C194.158 115.075 196.778 112.453 200.002 112.453C203.227 112.453 205.847 115.075 205.847 118.298C205.847 121.52 203.227 124.142 200.002 124.142C196.778 124.142 194.158 121.522 194.158 118.298ZM200.002 139.798C196.78 139.798 194.158 137.179 194.158 133.954C194.158 130.729 196.778 128.109 200.002 128.109C203.227 128.109 205.847 130.729 205.847 133.954C205.847 137.179 203.227 139.798 200.002 139.798Z" fill="#1A1A1A"/>
<path d="M216 125.954C211.583 125.954 208 129.534 208 133.954C208 138.374 211.583 141.954 216 141.954C220.417 141.954 224 138.374 224 133.954C224 129.534 220.42 125.954 216 125.954ZM216 139.798C212.778 139.798 210.155 137.179 210.155 133.954C210.155 130.729 212.778 128.109 216 128.109C219.222 128.109 221.845 130.729 221.845 133.954C221.845 137.179 219.225 139.798 216 139.798Z" fill="#1A1A1A"/>
<path d="M264 94.636C259.583 94.636 256 98.2163 256 102.636C256 107.056 259.583 110.636 264 110.636C268.417 110.636 272 107.053 272 102.636C272 98.2187 268.42 94.636 264 94.636ZM264 108.48C260.778 108.48 258.155 105.861 258.155 102.636C258.155 99.4114 260.778 96.7914 264 96.7914C267.222 96.7914 269.845 99.4114 269.845 102.636C269.845 105.861 267.225 108.48 264 108.48Z" fill="#1A1A1A"/>
<path d="M281.65 110.467C285.276 109.707 288 106.49 288 102.639C288 98.2189 284.42 94.6387 280 94.6387C275.58 94.6387 272 98.2189 272 102.639C272 106.492 274.724 109.707 278.35 110.467C274.724 111.226 272 114.444 272 118.297C272 122.717 275.583 126.297 280 126.297C284.417 126.297 288 122.717 288 118.297C288 114.444 285.276 111.229 281.65 110.467ZM274.158 102.639C274.158 99.4163 276.78 96.794 280.002 96.794C283.225 96.794 285.847 99.4139 285.847 102.639C285.847 105.863 283.227 108.483 280.002 108.483C276.778 108.483 274.158 105.863 274.158 102.639ZM280.002 124.142C276.78 124.142 274.158 121.522 274.158 118.297C274.158 115.073 276.78 112.453 280.002 112.453C283.225 112.453 285.847 115.075 285.847 118.297C285.847 121.52 283.227 124.142 280.002 124.142Z" fill="#1A1A1A"/>
<path d="M249.65 126.126C253.276 125.366 256 122.149 256 118.298C256 113.878 252.42 110.295 248 110.295C243.58 110.295 240 113.878 240 118.298C240 122.151 242.724 125.366 246.35 126.126C242.724 126.885 240 130.103 240 133.954C240 138.374 243.583 141.954 248 141.954C252.417 141.954 256 138.374 256 133.954C256 130.1 253.276 126.885 249.65 126.126ZM242.158 118.298C242.158 115.075 244.778 112.453 248.002 112.453C251.227 112.453 253.847 115.075 253.847 118.298C253.847 121.52 251.227 124.142 248.002 124.142C244.778 124.142 242.158 121.522 242.158 118.298ZM248.002 139.798C244.78 139.798 242.158 137.179 242.158 133.954C242.158 130.729 244.778 128.109 248.002 128.109C251.227 128.109 253.847 130.729 253.847 133.954C253.847 137.179 251.227 139.798 248.002 139.798Z" fill="#1A1A1A"/>
<path d="M264 125.954C259.583 125.954 256 129.534 256 133.954C256 138.374 259.583 141.954 264 141.954C268.417 141.954 272 138.374 272 133.954C272 129.534 268.42 125.954 264 125.954ZM264 139.798C260.778 139.798 258.155 137.179 258.155 133.954C258.155 130.729 260.778 128.109 264 128.109C267.222 128.109 269.845 130.729 269.845 133.954C269.845 137.179 267.225 139.798 264 139.798Z" fill="#1A1A1A"/>
</svg>
