<svg width="301" height="142" viewBox="0 0 301 142" fill="none" xmlns="http://www.w3.org/2000/svg">
<path d="M181 141.954C185.417 141.954 189 138.374 189 133.954C189 129.534 185.417 125.954 181 125.954C176.583 125.954 173 129.537 173 133.954C173 138.371 176.58 141.954 181 141.954ZM181 128.109C184.222 128.109 186.845 130.729 186.845 133.954C186.845 137.178 184.222 139.798 181 139.798C177.778 139.798 175.155 137.178 175.155 133.954C175.155 130.729 177.775 128.109 181 128.109Z" fill="#FFD700"/>
<path d="M163.35 126.123C159.724 126.883 157 130.1 157 133.951C157 138.371 160.58 141.951 165 141.951C169.42 141.951 173 138.371 173 133.951C173 130.098 170.276 126.883 166.65 126.123C170.276 125.363 173 122.146 173 118.292C173 113.873 169.417 110.293 165 110.293C160.583 110.293 157 113.873 157 118.292C157 122.146 159.724 125.361 163.35 126.123ZM170.842 133.951C170.842 137.173 168.22 139.796 164.998 139.796C161.775 139.796 159.153 137.176 159.153 133.951C159.153 130.727 161.773 128.107 164.998 128.107C168.222 128.107 170.842 130.727 170.842 133.951ZM164.998 112.448C168.22 112.448 170.842 115.068 170.842 118.292C170.842 121.517 168.22 124.137 164.998 124.137C161.775 124.137 159.153 121.515 159.153 118.292C159.153 115.07 161.773 112.448 164.998 112.448Z" fill="#FFD700"/>
<path d="M195.35 110.464C191.724 111.224 189 114.441 189 118.292C189 122.712 192.58 126.295 197 126.295C201.42 126.295 205 122.712 205 118.292C205 114.439 202.276 111.224 198.65 110.464C202.276 109.705 205 106.487 205 102.636C205 98.2161 201.417 94.6359 197 94.6359C192.583 94.6359 189 98.2161 189 102.636C189 106.489 191.724 109.705 195.35 110.464ZM202.842 118.292C202.842 121.515 200.222 124.137 196.998 124.137C193.773 124.137 191.153 121.515 191.153 118.292C191.153 115.07 193.773 112.448 196.998 112.448C200.222 112.448 202.842 115.068 202.842 118.292ZM196.998 96.7914C200.22 96.7914 202.842 99.4112 202.842 102.636C202.842 105.86 200.222 108.48 196.998 108.48C193.773 108.48 191.153 105.86 191.153 102.636C191.153 99.4112 193.773 96.7914 196.998 96.7914Z" fill="#FFD700"/>
<path d="M181 110.636C185.417 110.636 189 107.056 189 102.636C189 98.2163 185.417 94.636 181 94.636C176.583 94.636 173 98.2163 173 102.636C173 107.056 176.58 110.636 181 110.636ZM181 96.7915C184.222 96.7915 186.845 99.4113 186.845 102.636C186.845 105.861 184.222 108.481 181 108.481C177.778 108.481 175.155 105.861 175.155 102.636C175.155 99.4113 177.775 96.7915 181 96.7915Z" fill="#FFD700"/>
<path d="M133 141.954C137.417 141.954 141 138.374 141 133.954C141 129.534 137.417 125.954 133 125.954C128.583 125.954 125 129.537 125 133.954C125 138.371 128.58 141.954 133 141.954ZM133 128.109C136.222 128.109 138.845 130.729 138.845 133.954C138.845 137.178 136.222 139.798 133 139.798C129.778 139.798 127.155 137.178 127.155 133.954C127.155 130.729 129.775 128.109 133 128.109Z" fill="#FFD700"/>
<path d="M115.35 126.123C111.724 126.883 109 130.1 109 133.951C109 138.371 112.58 141.951 117 141.951C121.42 141.951 125 138.371 125 133.951C125 130.098 122.276 126.883 118.65 126.123C122.276 125.363 125 122.146 125 118.292C125 113.873 121.417 110.293 117 110.293C112.583 110.293 109 113.873 109 118.292C109 122.146 111.724 125.361 115.35 126.123ZM122.842 133.951C122.842 137.173 120.22 139.796 116.998 139.796C113.775 139.796 111.153 137.176 111.153 133.951C111.153 130.727 113.773 128.107 116.998 128.107C120.222 128.107 122.842 130.727 122.842 133.951ZM116.998 112.448C120.22 112.448 122.842 115.068 122.842 118.292C122.842 121.517 120.22 124.137 116.998 124.137C113.775 124.137 111.153 121.515 111.153 118.292C111.153 115.07 113.773 112.448 116.998 112.448Z" fill="#FFD700"/>
<path d="M147.35 110.464C143.724 111.224 141 114.441 141 118.292C141 122.712 144.58 126.295 149 126.295C153.42 126.295 157 122.712 157 118.292C157 114.439 154.276 111.224 150.65 110.464C154.276 109.705 157 106.487 157 102.636C157 98.2161 153.417 94.6359 149 94.6359C144.583 94.6359 141 98.2161 141 102.636C141 106.489 143.724 109.705 147.35 110.464ZM154.842 118.292C154.842 121.515 152.222 124.137 148.998 124.137C145.773 124.137 143.153 121.515 143.153 118.292C143.153 115.07 145.773 112.448 148.998 112.448C152.222 112.448 154.842 115.068 154.842 118.292ZM148.998 96.7914C152.22 96.7914 154.842 99.4112 154.842 102.636C154.842 105.86 152.222 108.48 148.998 108.48C145.773 108.48 143.153 105.86 143.153 102.636C143.153 99.4112 145.773 96.7914 148.998 96.7914Z" fill="#FFD700"/>
<path d="M133 110.636C137.417 110.636 141 107.056 141 102.636C141 98.2163 137.417 94.636 133 94.636C128.583 94.636 125 98.2163 125 102.636C125 107.056 128.58 110.636 133 110.636ZM133 96.7915C136.222 96.7915 138.845 99.4113 138.845 102.636C138.845 105.861 136.222 108.481 133 108.481C129.778 108.481 127.155 105.861 127.155 102.636C127.155 99.4113 129.775 96.7915 133 96.7915Z" fill="#FFD700"/>
<path d="M85 141.954C89.4173 141.954 93 138.374 93 133.954C93 129.534 89.4173 125.954 85 125.954C80.5827 125.954 77 129.537 77 133.954C77 138.371 80.5803 141.954 85 141.954ZM85 128.109C88.2223 128.109 90.8446 130.729 90.8446 133.954C90.8446 137.178 88.2223 139.798 85 139.798C81.7778 139.798 79.1555 137.178 79.1555 133.954C79.1555 130.729 81.7754 128.109 85 128.109Z" fill="#FFD700"/>
<path d="M67.3502 126.123C63.7239 126.883 61 130.1 61 133.951C61 138.371 64.5803 141.951 69 141.951C73.4197 141.951 77 138.371 77 133.951C77 130.098 74.2761 126.883 70.6498 126.123C74.2761 125.363 77 122.146 77 118.292C77 113.873 73.4173 110.293 69 110.293C64.5827 110.293 61 113.873 61 118.292C61 122.146 63.7239 125.361 67.3502 126.123ZM74.8422 133.951C74.8422 137.173 72.2199 139.796 68.9976 139.796C65.7754 139.796 63.153 137.176 63.153 133.951C63.153 130.727 65.7729 128.107 68.9976 128.107C72.2223 128.107 74.8422 130.727 74.8422 133.951ZM68.9976 112.448C72.2199 112.448 74.8422 115.068 74.8422 118.292C74.8422 121.517 72.2199 124.137 68.9976 124.137C65.7754 124.137 63.153 121.515 63.153 118.292C63.153 115.07 65.7729 112.448 68.9976 112.448Z" fill="#FFD700"/>
<path d="M99.3502 110.464C95.7239 111.224 93 114.441 93 118.292C93 122.712 96.5803 126.295 101 126.295C105.42 126.295 109 122.712 109 118.292C109 114.439 106.276 111.224 102.65 110.464C106.276 109.705 109 106.487 109 102.636C109 98.2161 105.417 94.6359 101 94.6359C96.5827 94.6359 93 98.2161 93 102.636C93 106.489 95.7239 109.705 99.3502 110.464ZM106.842 118.292C106.842 121.515 104.222 124.137 100.998 124.137C97.7729 124.137 95.153 121.515 95.153 118.292C95.153 115.07 97.7729 112.448 100.998 112.448C104.222 112.448 106.842 115.068 106.842 118.292ZM100.998 96.7914C104.22 96.7914 106.842 99.4112 106.842 102.636C106.842 105.86 104.222 108.48 100.998 108.48C97.7729 108.48 95.153 105.86 95.153 102.636C95.153 99.4112 97.7729 96.7914 100.998 96.7914Z" fill="#FFD700"/>
<path d="M85 110.636C89.4173 110.636 93 107.056 93 102.636C93 98.2163 89.4173 94.636 85 94.636C80.5827 94.636 77 98.2163 77 102.636C77 107.056 80.5803 110.636 85 110.636ZM85 96.7915C88.2223 96.7915 90.8446 99.4113 90.8446 102.636C90.8446 105.861 88.2223 108.481 85 108.481C81.7778 108.481 79.1555 105.861 79.1555 102.636C79.1555 99.4113 81.7754 96.7915 85 96.7915Z" fill="#FFD700"/>
<path d="M37 141.954C41.4173 141.954 45 138.374 45 133.954C45 129.534 41.4173 125.954 37 125.954C32.5827 125.954 29 129.537 29 133.954C29 138.371 32.5803 141.954 37 141.954ZM37 128.109C40.2223 128.109 42.8446 130.729 42.8446 133.954C42.8446 137.178 40.2223 139.798 37 139.798C33.7778 139.798 31.1555 137.178 31.1555 133.954C31.1555 130.729 33.7754 128.109 37 128.109Z" fill="#FFD700"/>
<path d="M19.3502 126.123C15.7239 126.883 13 130.1 13 133.951C13 138.371 16.5803 141.951 21 141.951C25.4197 141.951 29 138.371 29 133.951C29 130.098 26.2761 126.883 22.6498 126.123C26.2761 125.363 29 122.146 29 118.292C29 113.873 25.4173 110.293 21 110.293C16.5827 110.293 13 113.873 13 118.292C13 122.146 15.7239 125.361 19.3502 126.123ZM26.8422 133.951C26.8422 137.173 24.2199 139.796 20.9976 139.796C17.7754 139.796 15.153 137.176 15.153 133.951C15.153 130.727 17.7729 128.107 20.9976 128.107C24.2223 128.107 26.8422 130.727 26.8422 133.951ZM20.9976 112.448C24.2199 112.448 26.8422 115.068 26.8422 118.292C26.8422 121.517 24.2199 124.137 20.9976 124.137C17.7754 124.137 15.153 121.515 15.153 118.292C15.153 115.07 17.7729 112.448 20.9976 112.448Z" fill="#FFD700"/>
<path d="M51.3502 110.464C47.7239 111.224 45 114.441 45 118.292C45 122.712 48.5803 126.295 53 126.295C57.4197 126.295 61 122.712 61 118.292C61 114.439 58.2761 111.224 54.6498 110.464C58.2761 109.705 61 106.487 61 102.636C61 98.2161 57.4173 94.6359 53 94.6359C48.5827 94.6359 45 98.2161 45 102.636C45 106.489 47.7239 109.705 51.3502 110.464ZM58.8421 118.292C58.8421 121.515 56.2223 124.137 52.9976 124.137C49.7729 124.137 47.153 121.515 47.153 118.292C47.153 115.07 49.7729 112.448 52.9976 112.448C56.2223 112.448 58.8421 115.068 58.8421 118.292ZM52.9976 96.7914C56.2199 96.7914 58.8421 99.4112 58.8421 102.636C58.8421 105.86 56.2223 108.48 52.9976 108.48C49.7729 108.48 47.153 105.86 47.153 102.636C47.153 99.4112 49.7729 96.7914 52.9976 96.7914Z" fill="#FFD700"/>
<path d="M37 110.636C41.4173 110.636 45 107.056 45 102.636C45 98.2163 41.4173 94.636 37 94.636C32.5827 94.636 29 98.2163 29 102.636C29 107.056 32.5803 110.636 37 110.636ZM37 96.7915C40.2223 96.7915 42.8446 99.4113 42.8446 102.636C42.8446 105.861 40.2223 108.481 37 108.481C33.7778 108.481 31.1555 105.861 31.1555 102.636C31.1555 99.4113 33.7754 96.7915 37 96.7915Z" fill="#FFD700"/>
<path d="M3.35018 110.464C-0.276065 111.224 -2.99998 114.441 -2.99998 118.292C-2.99998 122.712 0.580316 126.295 5.00002 126.295C9.41973 126.295 13 122.712 13 118.292C13 114.439 10.2761 111.224 6.64984 110.464C10.2761 109.705 13 106.487 13 102.636C13 98.2161 9.41732 94.6359 5.00002 94.6359C0.582735 94.6359 -2.99998 98.2161 -2.99998 102.636C-2.99998 106.489 -0.276065 109.705 3.35018 110.464ZM10.8421 118.292C10.8421 121.515 8.22227 124.137 4.9976 124.137C1.77293 124.137 -0.846969 121.515 -0.846969 118.292C-0.846969 115.07 1.77293 112.448 4.9976 112.448C8.22227 112.448 10.8421 115.068 10.8421 118.292ZM4.9976 96.7914C8.21985 96.7914 10.8421 99.4112 10.8421 102.636C10.8421 105.86 8.22227 108.48 4.9976 108.48C1.77293 108.48 -0.846969 105.86 -0.846969 102.636C-0.846969 99.4112 1.77293 96.7914 4.9976 96.7914Z" fill="#FFD700"/>
<path d="M229 94.636C233.417 94.636 237 91.0556 237 86.636C237 82.2163 233.417 78.636 229 78.636C224.583 78.636 221 82.2187 221 86.636C221 91.0532 224.58 94.636 229 94.636ZM229 80.7915C232.222 80.7915 234.845 83.4113 234.845 86.636C234.845 89.8606 232.222 92.4805 229 92.4805C225.778 92.4805 223.155 89.8606 223.155 86.636C223.155 83.4113 225.775 80.7915 229 80.7915Z" fill="#FFD700"/>
<path d="M211.35 78.8052C207.724 79.5648 205 82.7822 205 86.6334C205 91.0531 208.58 94.6333 213 94.6333C217.42 94.6333 221 91.0531 221 86.6334C221 82.7798 218.276 79.5648 214.65 78.8052C218.276 78.0456 221 74.8282 221 70.9746C221 66.5549 217.417 62.9747 213 62.9747C208.583 62.9747 205 66.5549 205 70.9746C205 74.8282 207.724 78.0432 211.35 78.8052ZM218.842 86.6334C218.842 89.8556 216.22 92.478 212.998 92.478C209.775 92.478 207.153 89.858 207.153 86.6334C207.153 83.4087 209.773 80.7888 212.998 80.7888C216.222 80.7888 218.842 83.4087 218.842 86.6334ZM212.998 65.13C216.22 65.13 218.842 67.7499 218.842 70.9746C218.842 74.1992 216.22 76.8192 212.998 76.8192C209.775 76.8192 207.153 74.1968 207.153 70.9746C207.153 67.7523 209.773 65.13 212.998 65.13Z" fill="#FFD700"/>
<path d="M243.35 63.1462C239.724 63.9058 237 67.1232 237 70.9744C237 75.3941 240.58 78.9768 245 78.9768C249.42 78.9768 253 75.3941 253 70.9744C253 67.1208 250.276 63.9058 246.65 63.1462C250.276 62.3867 253 59.1692 253 55.318C253 50.8983 249.417 47.318 245 47.318C240.583 47.318 237 50.8983 237 55.318C237 59.1716 239.724 62.3867 243.35 63.1462ZM250.842 70.9744C250.842 74.1967 248.222 76.819 244.998 76.819C241.773 76.819 239.153 74.1967 239.153 70.9744C239.153 67.7522 241.773 65.1298 244.998 65.1298C248.222 65.1298 250.842 67.7498 250.842 70.9744ZM244.998 49.4735C248.22 49.4735 250.842 52.0933 250.842 55.318C250.842 58.5426 248.222 61.1625 244.998 61.1625C241.773 61.1625 239.153 58.5426 239.153 55.318C239.153 52.0933 241.773 49.4735 244.998 49.4735Z" fill="#FFD700"/>
<path d="M229 63.3181C233.417 63.3181 237 59.7378 237 55.3181C237 50.8984 233.417 47.3182 229 47.3182C224.583 47.3182 221 50.8984 221 55.3181C221 59.7378 224.58 63.3181 229 63.3181ZM229 49.4736C232.222 49.4736 234.845 52.0934 234.845 55.3181C234.845 58.5427 232.222 61.1627 229 61.1627C225.778 61.1627 223.155 58.5427 223.155 55.3181C223.155 52.0934 225.775 49.4736 229 49.4736Z" fill="#FFD700"/>
<path d="M181 94.636C185.417 94.636 189 91.0556 189 86.636C189 82.2163 185.417 78.636 181 78.636C176.583 78.636 173 82.2187 173 86.636C173 91.0532 176.58 94.636 181 94.636ZM181 80.7915C184.222 80.7915 186.845 83.4113 186.845 86.636C186.845 89.8606 184.222 92.4805 181 92.4805C177.778 92.4805 175.155 89.8606 175.155 86.636C175.155 83.4113 177.775 80.7915 181 80.7915Z" fill="#FFD700"/>
<path d="M163.35 78.8052C159.724 79.5648 157 82.7822 157 86.6334C157 91.0531 160.58 94.6333 165 94.6333C169.42 94.6333 173 91.0531 173 86.6334C173 82.7798 170.276 79.5648 166.65 78.8052C170.276 78.0456 173 74.8282 173 70.9746C173 66.5549 169.417 62.9747 165 62.9747C160.583 62.9747 157 66.5549 157 70.9746C157 74.8282 159.724 78.0432 163.35 78.8052ZM170.842 86.6334C170.842 89.8556 168.22 92.478 164.998 92.478C161.775 92.478 159.153 89.858 159.153 86.6334C159.153 83.4087 161.773 80.7888 164.998 80.7888C168.222 80.7888 170.842 83.4087 170.842 86.6334ZM164.998 65.13C168.22 65.13 170.842 67.7499 170.842 70.9746C170.842 74.1992 168.22 76.8192 164.998 76.8192C161.775 76.8192 159.153 74.1968 159.153 70.9746C159.153 67.7523 161.773 65.13 164.998 65.13Z" fill="#FFD700"/>
<path d="M195.35 63.1462C191.724 63.9058 189 67.1232 189 70.9744C189 75.3941 192.58 78.9768 197 78.9768C201.42 78.9768 205 75.3941 205 70.9744C205 67.1208 202.276 63.9058 198.65 63.1462C202.276 62.3867 205 59.1692 205 55.318C205 50.8983 201.417 47.318 197 47.318C192.583 47.318 189 50.8983 189 55.318C189 59.1716 191.724 62.3867 195.35 63.1462ZM202.842 70.9744C202.842 74.1967 200.222 76.819 196.998 76.819C193.773 76.819 191.153 74.1967 191.153 70.9744C191.153 67.7522 193.773 65.1298 196.998 65.1298C200.222 65.1298 202.842 67.7498 202.842 70.9744ZM196.998 49.4735C200.22 49.4735 202.842 52.0933 202.842 55.318C202.842 58.5426 200.222 61.1625 196.998 61.1625C193.773 61.1625 191.153 58.5426 191.153 55.318C191.153 52.0933 193.773 49.4735 196.998 49.4735Z" fill="#FFD700"/>
<path d="M181 63.3181C185.417 63.3181 189 59.7378 189 55.3181C189 50.8984 185.417 47.3182 181 47.3182C176.583 47.3182 173 50.8984 173 55.3181C173 59.7378 176.58 63.3181 181 63.3181ZM181 49.4736C184.222 49.4736 186.845 52.0934 186.845 55.3181C186.845 58.5427 184.222 61.1627 181 61.1627C177.778 61.1627 175.155 58.5427 175.155 55.3181C175.155 52.0934 177.775 49.4736 181 49.4736Z" fill="#FFD700"/>
<path d="M133 94.636C137.417 94.636 141 91.0556 141 86.636C141 82.2163 137.417 78.636 133 78.636C128.583 78.636 125 82.2187 125 86.636C125 91.0532 128.58 94.636 133 94.636ZM133 80.7915C136.222 80.7915 138.845 83.4113 138.845 86.636C138.845 89.8606 136.222 92.4805 133 92.4805C129.778 92.4805 127.155 89.8606 127.155 86.636C127.155 83.4113 129.775 80.7915 133 80.7915Z" fill="#FFD700"/>
<path d="M115.35 78.8052C111.724 79.5648 109 82.7822 109 86.6334C109 91.0531 112.58 94.6333 117 94.6333C121.42 94.6333 125 91.0531 125 86.6334C125 82.7798 122.276 79.5648 118.65 78.8052C122.276 78.0456 125 74.8282 125 70.9746C125 66.5549 121.417 62.9747 117 62.9747C112.583 62.9747 109 66.5549 109 70.9746C109 74.8282 111.724 78.0432 115.35 78.8052ZM122.842 86.6334C122.842 89.8556 120.22 92.478 116.998 92.478C113.775 92.478 111.153 89.858 111.153 86.6334C111.153 83.4087 113.773 80.7888 116.998 80.7888C120.222 80.7888 122.842 83.4087 122.842 86.6334ZM116.998 65.13C120.22 65.13 122.842 67.7499 122.842 70.9746C122.842 74.1992 120.22 76.8192 116.998 76.8192C113.775 76.8192 111.153 74.1968 111.153 70.9746C111.153 67.7523 113.773 65.13 116.998 65.13Z" fill="#FFD700"/>
<path d="M147.35 63.1462C143.724 63.9058 141 67.1232 141 70.9744C141 75.3941 144.58 78.9768 149 78.9768C153.42 78.9768 157 75.3941 157 70.9744C157 67.1208 154.276 63.9058 150.65 63.1462C154.276 62.3867 157 59.1692 157 55.318C157 50.8983 153.417 47.318 149 47.318C144.583 47.318 141 50.8983 141 55.318C141 59.1716 143.724 62.3867 147.35 63.1462ZM154.842 70.9744C154.842 74.1967 152.222 76.819 148.998 76.819C145.773 76.819 143.153 74.1967 143.153 70.9744C143.153 67.7522 145.773 65.1298 148.998 65.1298C152.222 65.1298 154.842 67.7498 154.842 70.9744ZM148.998 49.4735C152.22 49.4735 154.842 52.0933 154.842 55.318C154.842 58.5426 152.222 61.1625 148.998 61.1625C145.773 61.1625 143.153 58.5426 143.153 55.318C143.153 52.0933 145.773 49.4735 148.998 49.4735Z" fill="#FFD700"/>
<path d="M133 63.3181C137.417 63.3181 141 59.7378 141 55.3181C141 50.8984 137.417 47.3182 133 47.3182C128.583 47.3182 125 50.8984 125 55.3181C125 59.7378 128.58 63.3181 133 63.3181ZM133 49.4736C136.222 49.4736 138.845 52.0934 138.845 55.3181C138.845 58.5427 136.222 61.1627 133 61.1627C129.778 61.1627 127.155 58.5427 127.155 55.3181C127.155 52.0934 129.775 49.4736 133 49.4736Z" fill="#FFD700"/>
<path d="M85 94.636C89.4173 94.636 93 91.0556 93 86.636C93 82.2163 89.4173 78.636 85 78.636C80.5827 78.636 77 82.2187 77 86.636C77 91.0532 80.5803 94.636 85 94.636ZM85 80.7915C88.2223 80.7915 90.8446 83.4113 90.8446 86.636C90.8446 89.8606 88.2223 92.4805 85 92.4805C81.7778 92.4805 79.1555 89.8606 79.1555 86.636C79.1555 83.4113 81.7754 80.7915 85 80.7915Z" fill="#FFD700"/>
<path d="M67.3502 78.8052C63.7239 79.5648 61 82.7822 61 86.6334C61 91.0531 64.5803 94.6333 69 94.6333C73.4197 94.6333 77 91.0531 77 86.6334C77 82.7798 74.2761 79.5648 70.6498 78.8052C74.2761 78.0456 77 74.8282 77 70.9746C77 66.5549 73.4173 62.9747 69 62.9747C64.5827 62.9747 61 66.5549 61 70.9746C61 74.8282 63.7239 78.0432 67.3502 78.8052ZM74.8422 86.6334C74.8422 89.8556 72.2199 92.478 68.9976 92.478C65.7754 92.478 63.153 89.858 63.153 86.6334C63.153 83.4087 65.7729 80.7888 68.9976 80.7888C72.2223 80.7888 74.8422 83.4087 74.8422 86.6334ZM68.9976 65.13C72.2199 65.13 74.8422 67.7499 74.8422 70.9746C74.8422 74.1992 72.2199 76.8192 68.9976 76.8192C65.7754 76.8192 63.153 74.1968 63.153 70.9746C63.153 67.7523 65.7729 65.13 68.9976 65.13Z" fill="#FFD700"/>
<path d="M99.3502 63.1462C95.7239 63.9058 93 67.1232 93 70.9744C93 75.3941 96.5803 78.9768 101 78.9768C105.42 78.9768 109 75.3941 109 70.9744C109 67.1208 106.276 63.9058 102.65 63.1462C106.276 62.3867 109 59.1692 109 55.318C109 50.8983 105.417 47.318 101 47.318C96.5827 47.318 93 50.8983 93 55.318C93 59.1716 95.7239 62.3867 99.3502 63.1462ZM106.842 70.9744C106.842 74.1967 104.222 76.819 100.998 76.819C97.7729 76.819 95.153 74.1967 95.153 70.9744C95.153 67.7522 97.7729 65.1298 100.998 65.1298C104.222 65.1298 106.842 67.7498 106.842 70.9744ZM100.998 49.4735C104.22 49.4735 106.842 52.0933 106.842 55.318C106.842 58.5426 104.222 61.1625 100.998 61.1625C97.7729 61.1625 95.153 58.5426 95.153 55.318C95.153 52.0933 97.7729 49.4735 100.998 49.4735Z" fill="#FFD700"/>
<path d="M85 63.3181C89.4173 63.3181 93 59.7378 93 55.3181C93 50.8984 89.4173 47.3182 85 47.3182C80.5827 47.3182 77 50.8984 77 55.3181C77 59.7378 80.5803 63.3181 85 63.3181ZM85 49.4736C88.2223 49.4736 90.8446 52.0934 90.8446 55.3181C90.8446 58.5427 88.2223 61.1627 85 61.1627C81.7778 61.1627 79.1555 58.5427 79.1555 55.3181C79.1555 52.0934 81.7754 49.4736 85 49.4736Z" fill="#FFD700"/>
<path d="M37 94.636C41.4173 94.636 45 91.0556 45 86.636C45 82.2163 41.4173 78.636 37 78.636C32.5827 78.636 29 82.2187 29 86.636C29 91.0532 32.5803 94.636 37 94.636ZM37 80.7915C40.2223 80.7915 42.8446 83.4113 42.8446 86.636C42.8446 89.8606 40.2223 92.4805 37 92.4805C33.7778 92.4805 31.1555 89.8606 31.1555 86.636C31.1555 83.4113 33.7754 80.7915 37 80.7915Z" fill="#FFD700"/>
<path d="M19.3502 78.8052C15.7239 79.5648 13 82.7822 13 86.6334C13 91.0531 16.5803 94.6333 21 94.6333C25.4197 94.6333 29 91.0531 29 86.6334C29 82.7798 26.2761 79.5648 22.6498 78.8052C26.2761 78.0456 29 74.8282 29 70.9746C29 66.5549 25.4173 62.9747 21 62.9747C16.5827 62.9747 13 66.5549 13 70.9746C13 74.8282 15.7239 78.0432 19.3502 78.8052ZM26.8422 86.6334C26.8422 89.8556 24.2199 92.478 20.9976 92.478C17.7754 92.478 15.153 89.858 15.153 86.6334C15.153 83.4087 17.7729 80.7888 20.9976 80.7888C24.2223 80.7888 26.8422 83.4087 26.8422 86.6334ZM20.9976 65.13C24.2199 65.13 26.8422 67.7499 26.8422 70.9746C26.8422 74.1992 24.2199 76.8192 20.9976 76.8192C17.7754 76.8192 15.153 74.1968 15.153 70.9746C15.153 67.7523 17.7729 65.13 20.9976 65.13Z" fill="#FFD700"/>
<path d="M51.3502 63.1462C47.7239 63.9058 45 67.1232 45 70.9744C45 75.3941 48.5803 78.9768 53 78.9768C57.4197 78.9768 61 75.3941 61 70.9744C61 67.1208 58.2761 63.9058 54.6498 63.1462C58.2761 62.3867 61 59.1692 61 55.318C61 50.8983 57.4173 47.318 53 47.318C48.5827 47.318 45 50.8983 45 55.318C45 59.1716 47.7239 62.3867 51.3502 63.1462ZM58.8421 70.9744C58.8421 74.1967 56.2223 76.819 52.9976 76.819C49.7729 76.819 47.153 74.1967 47.153 70.9744C47.153 67.7522 49.7729 65.1298 52.9976 65.1298C56.2223 65.1298 58.8421 67.7498 58.8421 70.9744ZM52.9976 49.4735C56.2199 49.4735 58.8421 52.0933 58.8421 55.318C58.8421 58.5426 56.2223 61.1625 52.9976 61.1625C49.7729 61.1625 47.153 58.5426 47.153 55.318C47.153 52.0933 49.7729 49.4735 52.9976 49.4735Z" fill="#FFD700"/>
<path d="M37 63.3181C41.4173 63.3181 45 59.7378 45 55.3181C45 50.8984 41.4173 47.3182 37 47.3182C32.5827 47.3182 29 50.8984 29 55.3181C29 59.7378 32.5803 63.3181 37 63.3181ZM37 49.4736C40.2223 49.4736 42.8446 52.0934 42.8446 55.3181C42.8446 58.5427 40.2223 61.1627 37 61.1627C33.7778 61.1627 31.1555 58.5427 31.1555 55.3181C31.1555 52.0934 33.7754 49.4736 37 49.4736Z" fill="#FFD700"/>
<path d="M3.35018 63.1462C-0.276065 63.9058 -2.99998 67.1232 -2.99998 70.9744C-2.99998 75.3941 0.580316 78.9768 5.00002 78.9768C9.41973 78.9768 13 75.3941 13 70.9744C13 67.1208 10.2761 63.9058 6.64984 63.1462C10.2761 62.3867 13 59.1692 13 55.318C13 50.8983 9.41732 47.318 5.00002 47.318C0.582735 47.318 -2.99998 50.8983 -2.99998 55.318C-2.99998 59.1716 -0.276065 62.3867 3.35018 63.1462ZM10.8421 70.9744C10.8421 74.1967 8.22227 76.819 4.9976 76.819C1.77293 76.819 -0.846969 74.1967 -0.846969 70.9744C-0.846969 67.7522 1.77293 65.1298 4.9976 65.1298C8.22227 65.1298 10.8421 67.7498 10.8421 70.9744ZM4.9976 49.4735C8.21985 49.4735 10.8421 52.0933 10.8421 55.318C10.8421 58.5426 8.22227 61.1625 4.9976 61.1625C1.77293 61.1625 -0.846969 58.5426 -0.846969 55.318C-0.846969 52.0933 1.77293 49.4735 4.9976 49.4735Z" fill="#FFD700"/>
<path d="M277 47.3179C281.417 47.3179 285 43.7375 285 39.3178C285 34.8981 281.417 31.3179 277 31.3179C272.583 31.3179 269 34.9006 269 39.3178C269 43.7351 272.58 47.3179 277 47.3179ZM277 33.4734C280.222 33.4734 282.845 36.0932 282.845 39.3178C282.845 42.5425 280.222 45.1624 277 45.1624C273.778 45.1624 271.155 42.5425 271.155 39.3178C271.155 36.0932 273.775 33.4734 277 33.4734Z" fill="#FFD700"/>
<path d="M259.35 31.4871C255.724 32.2467 253 35.4641 253 39.3153C253 43.735 256.58 47.3152 261 47.3152C265.42 47.3152 269 43.735 269 39.3153C269 35.4616 266.276 32.2467 262.65 31.4871C266.276 30.7275 269 27.5101 269 23.6565C269 19.2368 265.417 15.6565 261 15.6565C256.583 15.6565 253 19.2368 253 23.6565C253 27.5101 255.724 30.7251 259.35 31.4871ZM266.842 39.3153C266.842 42.5375 264.22 45.1598 260.998 45.1598C257.775 45.1598 255.153 42.5399 255.153 39.3153C255.153 36.0906 257.773 33.4707 260.998 33.4707C264.222 33.4707 266.842 36.0906 266.842 39.3153ZM260.998 17.8119C264.22 17.8119 266.842 20.4318 266.842 23.6565C266.842 26.8811 264.22 29.501 260.998 29.501C257.775 29.501 255.153 26.8787 255.153 23.6565C255.153 20.4342 257.773 17.8119 260.998 17.8119Z" fill="#FFD700"/>
<path d="M291.35 15.8281C287.724 16.5877 285 19.8051 285 23.6563C285 28.076 288.58 31.6587 293 31.6587C297.42 31.6587 301 28.076 301 23.6563C301 19.8027 298.276 16.5877 294.65 15.8281C298.276 15.0685 301 11.851 301 7.99985C301 3.58015 297.417 -6.67572e-05 293 -6.67572e-05C288.583 -6.67572e-05 285 3.58015 285 7.99985C285 11.8535 287.724 15.0685 291.35 15.8281ZM298.842 23.6563C298.842 26.8785 296.222 29.5009 292.998 29.5009C289.773 29.5009 287.153 26.8785 287.153 23.6563C287.153 20.4341 289.773 17.8117 292.998 17.8117C296.222 17.8117 298.842 20.4316 298.842 23.6563ZM292.998 2.15539C296.22 2.15539 298.842 4.77519 298.842 7.99985C298.842 11.2245 296.222 13.8444 292.998 13.8444C289.773 13.8444 287.153 11.2245 287.153 7.99985C287.153 4.77519 289.773 2.15539 292.998 2.15539Z" fill="#FFD700"/>
<path d="M277 16C281.417 16 285 12.4197 285 7.99997C285 3.58028 281.417 5.62668e-05 277 5.62668e-05C272.583 5.62668e-05 269 3.58028 269 7.99997C269 12.4197 272.58 16 277 16ZM277 2.15551C280.222 2.15551 282.845 4.77531 282.845 7.99997C282.845 11.2246 280.222 13.8445 277 13.8445C273.778 13.8445 271.155 11.2246 271.155 7.99997C271.155 4.77531 273.775 2.15551 277 2.15551Z" fill="#FFD700"/>
<path d="M229 47.3179C233.417 47.3179 237 43.7375 237 39.3178C237 34.8981 233.417 31.3179 229 31.3179C224.583 31.3179 221 34.9006 221 39.3178C221 43.7351 224.58 47.3179 229 47.3179ZM229 33.4734C232.222 33.4734 234.845 36.0932 234.845 39.3178C234.845 42.5425 232.222 45.1624 229 45.1624C225.778 45.1624 223.155 42.5425 223.155 39.3178C223.155 36.0932 225.775 33.4734 229 33.4734Z" fill="#FFD700"/>
<path d="M211.35 31.4871C207.724 32.2467 205 35.4641 205 39.3153C205 43.735 208.58 47.3152 213 47.3152C217.42 47.3152 221 43.735 221 39.3153C221 35.4616 218.276 32.2467 214.65 31.4871C218.276 30.7275 221 27.5101 221 23.6565C221 19.2368 217.417 15.6565 213 15.6565C208.583 15.6565 205 19.2368 205 23.6565C205 27.5101 207.724 30.7251 211.35 31.4871ZM218.842 39.3153C218.842 42.5375 216.22 45.1598 212.998 45.1598C209.775 45.1598 207.153 42.5399 207.153 39.3153C207.153 36.0906 209.773 33.4707 212.998 33.4707C216.222 33.4707 218.842 36.0906 218.842 39.3153ZM212.998 17.8119C216.22 17.8119 218.842 20.4318 218.842 23.6565C218.842 26.8811 216.22 29.501 212.998 29.501C209.775 29.501 207.153 26.8787 207.153 23.6565C207.153 20.4342 209.773 17.8119 212.998 17.8119Z" fill="#FFD700"/>
<path d="M243.35 15.8281C239.724 16.5877 237 19.8051 237 23.6563C237 28.076 240.58 31.6587 245 31.6587C249.42 31.6587 253 28.076 253 23.6563C253 19.8027 250.276 16.5877 246.65 15.8281C250.276 15.0685 253 11.851 253 7.99985C253 3.58015 249.417 -6.67572e-05 245 -6.67572e-05C240.583 -6.67572e-05 237 3.58015 237 7.99985C237 11.8535 239.724 15.0685 243.35 15.8281ZM250.842 23.6563C250.842 26.8785 248.222 29.5009 244.998 29.5009C241.773 29.5009 239.153 26.8785 239.153 23.6563C239.153 20.4341 241.773 17.8117 244.998 17.8117C248.222 17.8117 250.842 20.4316 250.842 23.6563ZM244.998 2.15539C248.22 2.15539 250.842 4.77519 250.842 7.99985C250.842 11.2245 248.222 13.8444 244.998 13.8444C241.773 13.8444 239.153 11.2245 239.153 7.99985C239.153 4.77519 241.773 2.15539 244.998 2.15539Z" fill="#FFD700"/>
<path d="M229 16C233.417 16 237 12.4197 237 7.99997C237 3.58028 233.417 5.62668e-05 229 5.62668e-05C224.583 5.62668e-05 221 3.58028 221 7.99997C221 12.4197 224.58 16 229 16ZM229 2.15551C232.222 2.15551 234.845 4.77531 234.845 7.99997C234.845 11.2246 232.222 13.8445 229 13.8445C225.778 13.8445 223.155 11.2246 223.155 7.99997C223.155 4.77531 225.775 2.15551 229 2.15551Z" fill="#FFD700"/>
<path d="M181 47.3179C185.417 47.3179 189 43.7375 189 39.3178C189 34.8981 185.417 31.3179 181 31.3179C176.583 31.3179 173 34.9006 173 39.3178C173 43.7351 176.58 47.3179 181 47.3179ZM181 33.4734C184.222 33.4734 186.845 36.0932 186.845 39.3178C186.845 42.5425 184.222 45.1624 181 45.1624C177.778 45.1624 175.155 42.5425 175.155 39.3178C175.155 36.0932 177.775 33.4734 181 33.4734Z" fill="#FFD700"/>
<path d="M163.35 31.4871C159.724 32.2467 157 35.4641 157 39.3153C157 43.735 160.58 47.3152 165 47.3152C169.42 47.3152 173 43.735 173 39.3153C173 35.4616 170.276 32.2467 166.65 31.4871C170.276 30.7275 173 27.5101 173 23.6565C173 19.2368 169.417 15.6565 165 15.6565C160.583 15.6565 157 19.2368 157 23.6565C157 27.5101 159.724 30.7251 163.35 31.4871ZM170.842 39.3153C170.842 42.5375 168.22 45.1598 164.998 45.1598C161.775 45.1598 159.153 42.5399 159.153 39.3153C159.153 36.0906 161.773 33.4707 164.998 33.4707C168.222 33.4707 170.842 36.0906 170.842 39.3153ZM164.998 17.8119C168.22 17.8119 170.842 20.4318 170.842 23.6565C170.842 26.8811 168.22 29.501 164.998 29.501C161.775 29.501 159.153 26.8787 159.153 23.6565C159.153 20.4342 161.773 17.8119 164.998 17.8119Z" fill="#FFD700"/>
<path d="M195.35 15.8281C191.724 16.5877 189 19.8051 189 23.6563C189 28.076 192.58 31.6587 197 31.6587C201.42 31.6587 205 28.076 205 23.6563C205 19.8027 202.276 16.5877 198.65 15.8281C202.276 15.0685 205 11.851 205 7.99985C205 3.58015 201.417 -6.67572e-05 197 -6.67572e-05C192.583 -6.67572e-05 189 3.58015 189 7.99985C189 11.8535 191.724 15.0685 195.35 15.8281ZM202.842 23.6563C202.842 26.8785 200.222 29.5009 196.998 29.5009C193.773 29.5009 191.153 26.8785 191.153 23.6563C191.153 20.4341 193.773 17.8117 196.998 17.8117C200.222 17.8117 202.842 20.4316 202.842 23.6563ZM196.998 2.15539C200.22 2.15539 202.842 4.77519 202.842 7.99985C202.842 11.2245 200.222 13.8444 196.998 13.8444C193.773 13.8444 191.153 11.2245 191.153 7.99985C191.153 4.77519 193.773 2.15539 196.998 2.15539Z" fill="#FFD700"/>
<path d="M181 16C185.417 16 189 12.4197 189 7.99997C189 3.58028 185.417 5.62668e-05 181 5.62668e-05C176.583 5.62668e-05 173 3.58028 173 7.99997C173 12.4197 176.58 16 181 16ZM181 2.15551C184.222 2.15551 186.845 4.77531 186.845 7.99997C186.845 11.2246 184.222 13.8445 181 13.8445C177.778 13.8445 175.155 11.2246 175.155 7.99997C175.155 4.77531 177.775 2.15551 181 2.15551Z" fill="#FFD700"/>
<path d="M133 47.3179C137.417 47.3179 141 43.7375 141 39.3178C141 34.8981 137.417 31.3179 133 31.3179C128.583 31.3179 125 34.9006 125 39.3178C125 43.7351 128.58 47.3179 133 47.3179ZM133 33.4734C136.222 33.4734 138.845 36.0932 138.845 39.3178C138.845 42.5425 136.222 45.1624 133 45.1624C129.778 45.1624 127.155 42.5425 127.155 39.3178C127.155 36.0932 129.775 33.4734 133 33.4734Z" fill="#FFD700"/>
<path d="M115.35 31.4871C111.724 32.2467 109 35.4641 109 39.3153C109 43.735 112.58 47.3152 117 47.3152C121.42 47.3152 125 43.735 125 39.3153C125 35.4616 122.276 32.2467 118.65 31.4871C122.276 30.7275 125 27.5101 125 23.6565C125 19.2368 121.417 15.6565 117 15.6565C112.583 15.6565 109 19.2368 109 23.6565C109 27.5101 111.724 30.7251 115.35 31.4871ZM122.842 39.3153C122.842 42.5375 120.22 45.1598 116.998 45.1598C113.775 45.1598 111.153 42.5399 111.153 39.3153C111.153 36.0906 113.773 33.4707 116.998 33.4707C120.222 33.4707 122.842 36.0906 122.842 39.3153ZM116.998 17.8119C120.22 17.8119 122.842 20.4318 122.842 23.6565C122.842 26.8811 120.22 29.501 116.998 29.501C113.775 29.501 111.153 26.8787 111.153 23.6565C111.153 20.4342 113.773 17.8119 116.998 17.8119Z" fill="#FFD700"/>
<path d="M147.35 15.8281C143.724 16.5877 141 19.8051 141 23.6563C141 28.076 144.58 31.6587 149 31.6587C153.42 31.6587 157 28.076 157 23.6563C157 19.8027 154.276 16.5877 150.65 15.8281C154.276 15.0685 157 11.851 157 7.99985C157 3.58015 153.417 -6.67572e-05 149 -6.67572e-05C144.583 -6.67572e-05 141 3.58015 141 7.99985C141 11.8535 143.724 15.0685 147.35 15.8281ZM154.842 23.6563C154.842 26.8785 152.222 29.5009 148.998 29.5009C145.773 29.5009 143.153 26.8785 143.153 23.6563C143.153 20.4341 145.773 17.8117 148.998 17.8117C152.222 17.8117 154.842 20.4316 154.842 23.6563ZM148.998 2.15539C152.22 2.15539 154.842 4.77519 154.842 7.99985C154.842 11.2245 152.222 13.8444 148.998 13.8444C145.773 13.8444 143.153 11.2245 143.153 7.99985C143.153 4.77519 145.773 2.15539 148.998 2.15539Z" fill="#FFD700"/>
<path d="M133 16C137.417 16 141 12.4197 141 7.99997C141 3.58028 137.417 5.62668e-05 133 5.62668e-05C128.583 5.62668e-05 125 3.58028 125 7.99997C125 12.4197 128.58 16 133 16ZM133 2.15551C136.222 2.15551 138.845 4.77531 138.845 7.99997C138.845 11.2246 136.222 13.8445 133 13.8445C129.778 13.8445 127.155 11.2246 127.155 7.99997C127.155 4.77531 129.775 2.15551 133 2.15551Z" fill="#FFD700"/>
<path d="M85 47.3179C89.4173 47.3179 93 43.7375 93 39.3178C93 34.8981 89.4173 31.3179 85 31.3179C80.5827 31.3179 77 34.9006 77 39.3178C77 43.7351 80.5803 47.3179 85 47.3179ZM85 33.4734C88.2223 33.4734 90.8446 36.0932 90.8446 39.3178C90.8446 42.5425 88.2223 45.1624 85 45.1624C81.7778 45.1624 79.1555 42.5425 79.1555 39.3178C79.1555 36.0932 81.7754 33.4734 85 33.4734Z" fill="#FFD700"/>
<path d="M67.3502 31.4871C63.7239 32.2467 61 35.4641 61 39.3153C61 43.735 64.5803 47.3152 69 47.3152C73.4197 47.3152 77 43.735 77 39.3153C77 35.4616 74.2761 32.2467 70.6498 31.4871C74.2761 30.7275 77 27.5101 77 23.6565C77 19.2368 73.4173 15.6565 69 15.6565C64.5827 15.6565 61 19.2368 61 23.6565C61 27.5101 63.7239 30.7251 67.3502 31.4871ZM74.8422 39.3153C74.8422 42.5375 72.2199 45.1598 68.9976 45.1598C65.7754 45.1598 63.153 42.5399 63.153 39.3153C63.153 36.0906 65.7729 33.4707 68.9976 33.4707C72.2223 33.4707 74.8422 36.0906 74.8422 39.3153ZM68.9976 17.8119C72.2199 17.8119 74.8422 20.4318 74.8422 23.6565C74.8422 26.8811 72.2199 29.501 68.9976 29.501C65.7754 29.501 63.153 26.8787 63.153 23.6565C63.153 20.4342 65.7729 17.8119 68.9976 17.8119Z" fill="#FFD700"/>
<path d="M99.3502 15.8281C95.7239 16.5877 93 19.8051 93 23.6563C93 28.076 96.5803 31.6587 101 31.6587C105.42 31.6587 109 28.076 109 23.6563C109 19.8027 106.276 16.5877 102.65 15.8281C106.276 15.0685 109 11.851 109 7.99985C109 3.58015 105.417 -6.67572e-05 101 -6.67572e-05C96.5827 -6.67572e-05 93 3.58015 93 7.99985C93 11.8535 95.7239 15.0685 99.3502 15.8281ZM106.842 23.6563C106.842 26.8785 104.222 29.5009 100.998 29.5009C97.7729 29.5009 95.153 26.8785 95.153 23.6563C95.153 20.4341 97.7729 17.8117 100.998 17.8117C104.222 17.8117 106.842 20.4316 106.842 23.6563ZM100.998 2.15539C104.22 2.15539 106.842 4.77519 106.842 7.99985C106.842 11.2245 104.222 13.8444 100.998 13.8444C97.7729 13.8444 95.153 11.2245 95.153 7.99985C95.153 4.77519 97.7729 2.15539 100.998 2.15539Z" fill="#FFD700"/>
<path d="M85 16C89.4173 16 93 12.4197 93 7.99997C93 3.58028 89.4173 5.62668e-05 85 5.62668e-05C80.5827 5.62668e-05 77 3.58028 77 7.99997C77 12.4197 80.5803 16 85 16ZM85 2.15551C88.2223 2.15551 90.8446 4.77531 90.8446 7.99997C90.8446 11.2246 88.2223 13.8445 85 13.8445C81.7778 13.8445 79.1555 11.2246 79.1555 7.99997C79.1555 4.77531 81.7754 2.15551 85 2.15551Z" fill="#FFD700"/>
<path d="M37 47.3179C41.4173 47.3179 45 43.7375 45 39.3178C45 34.8981 41.4173 31.3179 37 31.3179C32.5827 31.3179 29 34.9006 29 39.3178C29 43.7351 32.5803 47.3179 37 47.3179ZM37 33.4734C40.2223 33.4734 42.8446 36.0932 42.8446 39.3178C42.8446 42.5425 40.2223 45.1624 37 45.1624C33.7778 45.1624 31.1555 42.5425 31.1555 39.3178C31.1555 36.0932 33.7754 33.4734 37 33.4734Z" fill="#FFD700"/>
<path d="M19.3502 31.4871C15.7239 32.2467 13 35.4641 13 39.3153C13 43.735 16.5803 47.3152 21 47.3152C25.4197 47.3152 29 43.735 29 39.3153C29 35.4616 26.2761 32.2467 22.6498 31.4871C26.2761 30.7275 29 27.5101 29 23.6565C29 19.2368 25.4173 15.6565 21 15.6565C16.5827 15.6565 13 19.2368 13 23.6565C13 27.5101 15.7239 30.7251 19.3502 31.4871ZM26.8422 39.3153C26.8422 42.5375 24.2199 45.1598 20.9976 45.1598C17.7754 45.1598 15.153 42.5399 15.153 39.3153C15.153 36.0906 17.7729 33.4707 20.9976 33.4707C24.2223 33.4707 26.8422 36.0906 26.8422 39.3153ZM20.9976 17.8119C24.2199 17.8119 26.8422 20.4318 26.8422 23.6565C26.8422 26.8811 24.2199 29.501 20.9976 29.501C17.7754 29.501 15.153 26.8787 15.153 23.6565C15.153 20.4342 17.7729 17.8119 20.9976 17.8119Z" fill="#FFD700"/>
<path d="M51.3502 15.8281C47.7239 16.5877 45 19.8051 45 23.6563C45 28.076 48.5803 31.6587 53 31.6587C57.4197 31.6587 61 28.076 61 23.6563C61 19.8027 58.2761 16.5877 54.6498 15.8281C58.2761 15.0685 61 11.851 61 7.99985C61 3.58015 57.4173 -6.67572e-05 53 -6.67572e-05C48.5827 -6.67572e-05 45 3.58015 45 7.99985C45 11.8535 47.7239 15.0685 51.3502 15.8281ZM58.8421 23.6563C58.8421 26.8785 56.2223 29.5009 52.9976 29.5009C49.7729 29.5009 47.153 26.8785 47.153 23.6563C47.153 20.4341 49.7729 17.8117 52.9976 17.8117C56.2223 17.8117 58.8421 20.4316 58.8421 23.6563ZM52.9976 2.15539C56.2199 2.15539 58.8421 4.77519 58.8421 7.99985C58.8421 11.2245 56.2223 13.8444 52.9976 13.8444C49.7729 13.8444 47.153 11.2245 47.153 7.99985C47.153 4.77519 49.7729 2.15539 52.9976 2.15539Z" fill="#FFD700"/>
<path d="M37 16C41.4173 16 45 12.4197 45 7.99997C45 3.58028 41.4173 5.62668e-05 37 5.62668e-05C32.5827 5.62668e-05 29 3.58028 29 7.99997C29 12.4197 32.5803 16 37 16ZM37 2.15551C40.2223 2.15551 42.8446 4.77531 42.8446 7.99997C42.8446 11.2246 40.2223 13.8445 37 13.8445C33.7778 13.8445 31.1555 11.2246 31.1555 7.99997C31.1555 4.77531 33.7754 2.15551 37 2.15551Z" fill="#FFD700"/>
<path d="M3.35018 15.8281C-0.276065 16.5877 -2.99998 19.8051 -2.99998 23.6563C-2.99998 28.076 0.580316 31.6587 5.00002 31.6587C9.41973 31.6587 13 28.076 13 23.6563C13 19.8027 10.2761 16.5877 6.64984 15.8281C10.2761 15.0685 13 11.851 13 7.99985C13 3.58015 9.41732 -6.67572e-05 5.00002 -6.67572e-05C0.582735 -6.67572e-05 -2.99998 3.58015 -2.99998 7.99985C-2.99998 11.8535 -0.276065 15.0685 3.35018 15.8281ZM10.8421 23.6563C10.8421 26.8785 8.22227 29.5009 4.9976 29.5009C1.77293 29.5009 -0.846969 26.8785 -0.846969 23.6563C-0.846969 20.4341 1.77293 17.8117 4.9976 17.8117C8.22227 17.8117 10.8421 20.4316 10.8421 23.6563ZM4.9976 2.15539C8.21985 2.15539 10.8421 4.77519 10.8421 7.99985C10.8421 11.2245 8.22227 13.8444 4.9976 13.8444C1.77293 13.8444 -0.846969 11.2245 -0.846969 7.99985C-0.846969 4.77519 1.77293 2.15539 4.9976 2.15539Z" fill="#FFD700"/>
</svg>
